<svg width="79" height="82" viewBox="0 0 79 82" fill="none" xmlns="http://www.w3.org/2000/svg">
<path d="M58.549 61.7651C58.8115 61.7651 59.0632 61.6608 59.2487 61.4753C59.4343 61.2897 59.5386 61.038 59.5386 60.7755V55.0031C59.5386 54.7407 59.4343 54.489 59.2487 54.3034C59.0632 54.1178 58.8115 54.0135 58.549 54.0135C58.2866 54.0135 58.0349 54.1178 57.8493 54.3034C57.6637 54.489 57.5594 54.7407 57.5594 55.0031V60.7755C57.5594 61.038 57.6637 61.2897 57.8493 61.4753C58.0349 61.6608 58.2866 61.7651 58.549 61.7651Z" fill="white"/>
<path d="M51.9518 61.7651C52.2142 61.7651 52.4659 61.6608 52.6515 61.4753C52.8371 61.2897 52.9413 61.038 52.9413 60.7755V55.0031C52.9413 54.7407 52.8371 54.489 52.6515 54.3034C52.4659 54.1178 52.2142 54.0135 51.9518 54.0135C51.6893 54.0135 51.4376 54.1178 51.2521 54.3034C51.0665 54.489 50.9622 54.7407 50.9622 55.0031V60.7755C50.9622 61.038 51.0665 61.2897 51.2521 61.4753C51.4376 61.6608 51.6893 61.7651 51.9518 61.7651Z" fill="white"/>
<path d="M65.1459 61.7651C65.4084 61.7651 65.6601 61.6608 65.8457 61.4753C66.0312 61.2897 66.1355 61.038 66.1355 60.7755V55.0031C66.1355 54.7407 66.0312 54.489 65.8457 54.3034C65.6601 54.1178 65.4084 54.0135 65.1459 54.0135C64.8835 54.0135 64.6318 54.1178 64.4462 54.3034C64.2606 54.489 64.1564 54.7407 64.1564 55.0031V60.7755C64.1564 61.038 64.2606 61.2897 64.4462 61.4753C64.6318 61.6608 64.8835 61.7651 65.1459 61.7651Z" fill="white"/>
<path d="M71.7432 61.7651C72.0056 61.7651 72.2573 61.6608 72.4429 61.4753C72.6285 61.2897 72.7327 61.038 72.7327 60.7755V55.0031C72.7327 54.7407 72.6285 54.489 72.4429 54.3034C72.2573 54.1178 72.0056 54.0135 71.7432 54.0135C71.4807 54.0135 71.229 54.1178 71.0434 54.3034C70.8579 54.489 70.7536 54.7407 70.7536 55.0031V60.7755C70.7536 61.038 70.8579 61.2897 71.0434 61.4753C71.229 61.6608 71.4807 61.7651 71.7432 61.7651Z" fill="white"/>
<path d="M55.6247 11.215H54.6632C54.4008 11.215 54.1491 11.3192 53.9635 11.5048C53.7779 11.6904 53.6737 11.9421 53.6737 12.2045C53.6737 12.467 53.7779 12.7187 53.9635 12.9042C54.1491 13.0898 54.4008 13.1941 54.6632 13.1941H55.6247C55.8872 13.1941 56.1389 13.0898 56.3245 12.9042C56.51 12.7187 56.6143 12.467 56.6143 12.2045C56.6143 11.9421 56.51 11.6904 56.3245 11.5048C56.1389 11.3192 55.8872 11.215 55.6247 11.215Z" fill="white"/>
<path d="M51.7077 11.215H30.6763C30.4138 11.215 30.1621 11.3192 29.9766 11.5048C29.791 11.6904 29.6867 11.9421 29.6867 12.2045C29.6867 12.467 29.791 12.7187 29.9766 12.9042C30.1621 13.0898 30.4138 13.1941 30.6763 13.1941H51.7077C51.9702 13.1941 52.2219 13.0898 52.4075 12.9042C52.593 12.7187 52.6973 12.467 52.6973 12.2045C52.6973 11.9421 52.593 11.6904 52.4075 11.5048C52.2219 11.3192 51.9702 11.215 51.7077 11.215Z" fill="white"/>
<path d="M78.9947 49.7913C78.9929 49.7732 78.9896 49.7557 78.9868 49.7381C78.9847 49.724 78.9832 49.71 78.9805 49.6963C78.9764 49.6759 78.9708 49.6561 78.9655 49.6361C78.9626 49.6249 78.9603 49.6137 78.9568 49.6032C78.9513 49.585 78.9444 49.5675 78.938 49.5499C78.9334 49.5372 78.9292 49.5243 78.9241 49.5118C78.919 49.4992 78.9104 49.4826 78.9035 49.4681C78.8966 49.4536 78.89 49.4382 78.8822 49.4239C78.876 49.4122 78.8687 49.401 78.862 49.3896C78.8522 49.3731 78.843 49.3566 78.8323 49.3401C78.8258 49.3305 78.8186 49.3216 78.8118 49.3122C78.7998 49.2957 78.7879 49.2792 78.7747 49.2627C78.7655 49.2515 78.7552 49.2413 78.7455 49.2306C78.7358 49.2199 78.7226 49.204 78.7101 49.1915C78.687 49.1684 78.6627 49.1466 78.6375 49.1255L78.636 49.1242L63.5228 36.7877C64.1352 36.5806 64.6953 36.2431 65.1645 35.7984C65.6337 35.3538 66.0008 34.8126 66.2405 34.2122C66.3387 33.9687 66.3361 33.6961 66.2333 33.4544C66.1305 33.2128 65.936 33.0218 65.6924 32.9236C65.4489 32.8254 65.1763 32.828 64.9346 32.9308C64.693 33.0336 64.502 33.2281 64.4038 33.4717C64.2195 33.9363 63.8998 34.3348 63.4862 34.6154C63.0726 34.896 62.5841 35.0457 62.0843 35.0452C61.4146 35.0452 60.7724 34.7792 60.2988 34.3057C59.8253 33.8322 59.5593 33.1899 59.5593 32.5202C59.5593 31.8505 59.8253 31.2083 60.2988 30.7348C60.7724 30.2612 61.4146 29.9952 62.0843 29.9952C62.3468 29.9952 62.5985 29.8909 62.784 29.7054C62.9696 29.5198 63.0739 29.2681 63.0739 29.0056V21.4405H67.07C67.3325 21.4405 67.5842 21.3362 67.7698 21.1506C67.9553 20.965 68.0596 20.7133 68.0596 20.4509V16.5355H70.1377C70.268 16.5355 70.397 16.5098 70.5173 16.4598C70.6376 16.4098 70.7469 16.3366 70.8389 16.2442C70.9308 16.1519 71.0036 16.0423 71.0531 15.9218C71.1026 15.8013 71.1278 15.6722 71.1272 15.5419L71.0992 8.74523C71.0979 8.50942 71.0125 8.28181 70.8583 8.1034C70.7041 7.925 70.4912 7.80753 70.2581 7.77217V7.77118L19.4129 0.01138V0.0123695C19.3637 0.0045921 19.3141 0.000457691 19.2644 4.30751e-08H8.21994C8.08415 -4.01007e-05 7.94982 0.027979 7.82537 0.0823001C7.70092 0.136621 7.58904 0.216072 7.49674 0.315669L0.265534 8.07464C0.0944476 8.2576 -0.000503348 8.49887 2.00691e-06 8.74936V15.546C2.00691e-06 15.8084 0.104259 16.0601 0.289837 16.2457C0.475416 16.4313 0.727114 16.5355 0.989562 16.5355H7.23533L7.23038 73.9795C5.70194 74.1368 4.28608 74.8551 3.25646 75.9956C2.22684 77.1361 1.65656 78.6178 1.65587 80.1543C1.65587 80.4168 1.76012 80.6685 1.9457 80.854C2.13128 81.0396 2.38298 81.1439 2.64542 81.1439H24.711C24.9734 81.1439 25.2251 81.0396 25.4107 80.854C25.5963 80.6685 25.7005 80.4168 25.7005 80.1543C25.6985 78.6406 25.1441 77.1797 24.1415 76.0457C23.1389 74.9116 21.7568 74.1825 20.2548 73.995L20.2644 16.5355H55.9101V20.4509C55.9101 20.7133 56.0144 20.965 56.1999 21.1506C56.3855 21.3362 56.6372 21.4405 56.8997 21.4405H61.0954V28.1266C60.1696 28.3404 59.3351 28.8412 58.7107 29.5574C58.0864 30.2737 57.7042 31.1688 57.6187 32.1151C57.5332 33.0614 57.7488 34.0105 58.2346 34.8271C58.7205 35.6436 59.4518 36.2859 60.3242 36.6622L45.0589 49.1237L45.0573 49.1252C45.0325 49.1455 45.0087 49.167 44.986 49.1897C44.9722 49.2034 44.9598 49.218 44.9469 49.2324C44.9382 49.2423 44.9288 49.2515 44.9204 49.2619C44.9069 49.2784 44.8948 49.2949 44.8825 49.3124C44.876 49.3215 44.8689 49.33 44.8627 49.3393C44.8519 49.3558 44.8425 49.3723 44.8328 49.3888C44.8261 49.4001 44.819 49.411 44.8127 49.4227C44.8049 49.4371 44.7984 49.4521 44.7914 49.4669C44.7845 49.4818 44.7771 49.4958 44.7708 49.5106C44.7645 49.5255 44.7616 49.536 44.757 49.5487C44.7505 49.5664 44.7436 49.5839 44.7381 49.602C44.7347 49.6132 44.7324 49.6248 44.7294 49.6361C44.7241 49.6558 44.7185 49.6754 44.7146 49.6957C44.7116 49.7102 44.7101 49.7249 44.7078 49.7394C44.7052 49.7559 44.7019 49.7734 44.7002 49.7908C44.6969 49.8233 44.6953 49.8559 44.6953 49.8885V65.8882C44.6953 66.1506 44.7995 66.4023 44.9851 66.5879C45.1707 66.7735 45.4224 66.8777 45.6848 66.8777H78.0104C78.2729 66.8777 78.5246 66.7735 78.7102 66.5879C78.8957 66.4023 79 66.1506 79 65.8882V49.8883C78.9999 49.8559 78.9981 49.8236 78.9947 49.7913ZM57.0674 7.7598H20.2604L20.2556 2.14174L57.0674 7.7598ZM18.2813 7.7598H11.3341L18.2775 2.891L18.2813 7.7598ZM9.20719 1.97912H16.1298L9.19581 6.84198L9.20719 1.97912ZM7.22379 3.50947L7.21389 7.7598H3.26423L7.22379 3.50947ZM23.6045 79.1648H3.75093C3.97425 78.242 4.50111 77.4211 5.24694 76.8337C5.99277 76.2463 6.91433 75.9265 7.8637 75.9256H19.4927C20.4418 75.9268 21.3631 76.2468 22.1087 76.8342C22.8543 77.4215 23.381 78.2423 23.6045 79.1648ZM17.0249 23.7989L9.21346 27.3943V20.2057L17.0249 23.7989ZM9.21429 18.0265V16.5355H18.2852L18.2843 22.1998L9.21429 18.0265ZM18.2838 25.3987L18.2824 32.8939L10.1384 29.1476L18.2838 25.3987ZM16.9734 34.4697L9.21264 38.0397V30.9L16.9734 34.4697ZM18.2819 36.0464L18.2808 43.218L10.4883 39.6319L18.2819 36.0464ZM16.9479 44.7833L9.21165 48.3436V41.2232L16.9479 44.7833ZM18.2803 46.3488L18.279 53.7304L10.2607 50.0387L18.2803 46.3488ZM16.9968 55.3189L9.21082 58.9029V51.7352L16.9968 55.3189ZM18.2785 56.9076L18.2773 64.4213L10.1135 60.6658L18.2785 56.9076ZM16.9493 65.9888L9.21 69.5495V62.4278L16.9493 65.9888ZM18.2768 67.5567L18.2757 73.9465H9.2095V71.7294L18.2768 67.5567ZM57.8892 19.4613V16.5355H59.8684C60.1308 16.5355 60.3825 16.4313 60.5681 16.2457C60.7537 16.0601 60.8579 15.8084 60.8579 15.546C60.8579 15.2835 60.7537 15.0318 60.5681 14.8463C60.3825 14.6607 60.1308 14.5564 59.8684 14.5564H1.97912V9.73892H69.1249L69.1446 14.5564H63.4967C63.2343 14.5564 62.9826 14.6607 62.797 14.8463C62.6114 15.0318 62.5072 15.2835 62.5072 15.546C62.5072 15.8084 62.6114 16.0601 62.797 16.2457C62.9826 16.4313 63.2343 16.5355 63.4967 16.5355H66.0811V19.4613H57.8892ZM61.8475 37.9735L75.2332 48.9007H48.4617L61.8475 37.9735ZM77.0207 64.8986H46.6742V50.8799H77.0207V64.8986Z" fill="white"/>
</svg>
