<svg width="75" height="79" viewBox="0 0 75 79" fill="none" xmlns="http://www.w3.org/2000/svg">
<path d="M41.879 8.86475H37.4563C36.6708 8.86475 36.0317 9.50381 36.0317 10.2895V15.5965C36.0316 16.382 36.6706 17.0211 37.4563 17.0211H41.879C42.6645 17.0211 43.3037 16.382 43.3037 15.5964V10.2895C43.3037 9.50396 42.6646 8.86475 41.879 8.86475ZM41.0535 14.771H38.2816V11.1148H41.0535V14.771Z" fill="white"/>
<path d="M50.6727 8.86475H46.25C45.4645 8.86475 44.8254 9.50381 44.8254 10.2895V15.5965C44.8254 16.382 45.4643 17.0211 46.25 17.0211H50.6727C51.4582 17.0211 52.0972 16.382 52.0972 15.5964V10.2895C52.0972 9.50396 51.4582 8.86475 50.6727 8.86475ZM49.847 14.771H47.0753V11.1148H49.847V14.771Z" fill="white"/>
<path d="M59.466 8.86475H55.0433C54.2578 8.86475 53.6187 9.50381 53.6187 10.2895V15.5965C53.6187 16.382 54.2578 17.0211 55.0433 17.0211H59.466C60.2514 17.0211 60.8907 16.382 60.8907 15.5964V10.2895C60.8907 9.50396 60.2516 8.86475 59.466 8.86475ZM58.6406 14.771H55.8687V11.1148H58.6406V14.771Z" fill="white"/>
<path d="M41.879 22.0434H37.4563C36.6708 22.0434 36.0317 22.6825 36.0317 23.4681V28.7752C36.0316 29.5608 36.6706 30.1999 37.4563 30.1999H41.879C42.6645 30.1999 43.3037 29.5608 43.3037 28.7752V23.4681C43.3037 22.6826 42.6646 22.0434 41.879 22.0434ZM41.0535 27.95H38.2816V24.2937H41.0535V27.95Z" fill="white"/>
<path d="M50.6727 22.0434H46.25C45.4645 22.0434 44.8254 22.6825 44.8254 23.4681V28.7752C44.8254 29.5608 45.4643 30.1999 46.25 30.1999H50.6727C51.4582 30.1999 52.0972 29.5608 52.0972 28.7752V23.4681C52.0972 22.6826 51.4582 22.0434 50.6727 22.0434ZM49.847 27.95H47.0753V24.2937H49.847V27.95Z" fill="white"/>
<path d="M59.466 22.0434H55.0433C54.2578 22.0434 53.6187 22.6825 53.6187 23.4681V28.7752C53.6187 29.5608 54.2578 30.1999 55.0433 30.1999H59.466C60.2514 30.1999 60.8907 29.5608 60.8907 28.7752V23.4681C60.8907 22.6826 60.2516 22.0434 59.466 22.0434ZM58.6406 27.95H55.8687V24.2937H58.6406V27.95Z" fill="white"/>
<path d="M41.879 35.2227H37.4563C36.6708 35.2227 36.0317 35.8618 36.0317 36.6474V41.9545C36.0316 42.74 36.6706 43.3792 37.4563 43.3792H41.879C42.6645 43.3792 43.3037 42.7401 43.3037 41.9545V36.6474C43.3037 35.8619 42.6646 35.2227 41.879 35.2227ZM41.0535 41.1292H38.2816V37.4729H41.0535V41.1292Z" fill="white"/>
<path d="M50.6727 35.2227H46.25C45.4645 35.2227 44.8254 35.8618 44.8254 36.6474V41.9545C44.8254 42.74 45.4643 43.3792 46.25 43.3792H50.6727C51.4582 43.3792 52.0972 42.7401 52.0972 41.9545V36.6474C52.0972 35.8619 51.4582 35.2227 50.6727 35.2227ZM49.847 41.1292H47.0753V37.4729H49.847V41.1292Z" fill="white"/>
<path d="M59.466 35.2227H55.0433C54.2578 35.2227 53.6187 35.8618 53.6187 36.6474V41.9545C53.6187 42.74 54.2578 43.3792 55.0433 43.3792H59.466C60.2514 43.3792 60.8907 42.7401 60.8907 41.9545V36.6474C60.8907 35.8619 60.2516 35.2227 59.466 35.2227ZM58.6406 41.1292H55.8687V37.4729H58.6406V41.1292Z" fill="white"/>
<path d="M59.466 48.4018H55.0433C54.2578 48.4018 53.6187 49.0409 53.6187 49.8263V55.1334C53.6187 55.9189 54.2578 56.5581 55.0433 56.5581H59.466C60.2514 56.5581 60.8907 55.9191 60.8907 55.1334V49.8263C60.8907 49.0409 60.2516 48.4018 59.466 48.4018ZM58.6406 54.3079H55.8687V50.6518H58.6406V54.3079Z" fill="white"/>
<path d="M74.1935 53.415C72.7519 51.2961 69.8485 50.7352 67.7231 52.1636L64.6299 54.2337V5.83894H64.8541C65.6687 5.83894 66.3313 5.17634 66.3313 4.36178V1.47715C66.3313 0.662596 65.6687 0 64.8541 0H57.6702C57.0488 0 56.5452 0.503715 56.5452 1.12494C56.5452 1.74616 57.0489 2.24987 57.6702 2.24987H64.0813V3.58875H32.4941V2.24987H50.6254C51.2468 2.24987 51.7503 1.74616 51.7503 1.12494C51.7503 0.503715 51.2466 0 50.6252 0H31.7212C30.9067 0 30.2441 0.662596 30.2441 1.47715V4.36178C30.2441 5.17634 30.9067 5.83894 31.7212 5.83894H32.2925V20.2892H29.9825V17.5123C29.9825 16.5455 29.1959 15.759 28.2292 15.759H19.7348C18.768 15.759 17.9815 16.5455 17.9815 17.5123V20.289H16.365C15.3603 20.289 14.543 21.1063 14.543 22.111V47.9112C14.0668 47.8809 13.5892 47.8646 13.1106 47.8646H11.3375V47.2798C11.3375 45.0971 9.56181 43.3214 7.37899 43.3214H3.9585C1.77584 43.3214 0 45.0971 0 47.2798V63.3448C0 63.9662 0.503715 64.4698 1.12494 64.4698C1.74616 64.4698 2.24987 63.9661 2.24987 63.3448V47.2798C2.24987 46.3379 3.01629 45.5715 3.95835 45.5715H7.37884C8.3209 45.5715 9.08732 46.3379 9.08732 47.2798V72.5927C9.08732 73.5346 8.3209 74.301 7.37884 74.301H3.9585C3.01644 74.301 2.25003 73.5346 2.25003 72.5927V70.3855C2.25003 69.7641 1.74631 69.2605 1.12509 69.2605C0.503868 69.2605 0.000153868 69.7642 0.000153868 70.3855V72.5927C0.000153868 74.7754 1.77584 76.5511 3.95866 76.5511H7.37915C9.56181 76.5511 11.3377 74.7752 11.3377 72.5927V72.5286L26.9156 78.4277C26.946 78.4392 26.977 78.4493 27.0083 78.4583C27.6928 78.6516 28.3769 78.7487 29.0549 78.7487C29.4234 78.7487 29.7901 78.7199 30.154 78.6625C30.1543 78.6625 30.155 78.6624 30.1561 78.6622L53.1503 75.3477C53.156 75.3469 53.1615 75.346 53.1672 75.3451C55.1328 75.0312 56.987 74.2005 58.5295 72.9425C58.5435 72.9311 58.5573 72.9193 58.5707 72.9071L73.4327 59.5403C75.184 57.9849 75.5112 55.3517 74.1935 53.415ZM34.5425 5.83894H62.38V55.7396L53.0197 62.004L49.8814 61.8278L49.8015 61.0244C49.7429 60.4342 49.6106 59.8665 49.4137 59.3308C49.348 59.1522 49.2753 58.9772 49.1958 58.806C49.0763 58.5493 48.9415 58.3014 48.7925 58.0633C48.4401 57.5008 48.0079 56.994 47.5111 56.5578H50.6728C51.4582 56.5578 52.0973 55.9188 52.0973 55.1331V49.8261C52.0973 49.0406 51.4582 48.4015 50.6728 48.4015H46.2501C45.4646 48.4015 44.8255 49.0406 44.8255 49.8261V55.1079C44.5413 55.0295 44.2495 54.9681 43.951 54.9258C43.9414 54.9244 43.9318 54.9232 43.9221 54.9221L43.3038 54.8509V49.8259C43.3038 49.0404 42.6647 48.4012 41.8791 48.4012H37.4564C36.6709 48.4012 36.0318 49.0403 36.0318 49.8259V54.0137L34.5425 53.8424V5.83894ZM47.0752 54.3078V50.6517H49.847V54.3078H47.0752ZM41.0536 50.6515V54.3078H38.5839L38.2817 54.2731V50.6515H41.0536ZM20.2315 18.009H27.7324V20.289H20.2315V18.009ZM16.7927 22.539H32.2925V26.0572H19.5872C18.8598 26.0572 18.2682 26.6489 18.2682 27.3762V30.773C18.2682 31.5004 18.8598 32.0921 19.5872 32.0921H32.2925V35.2571H19.5872C18.8598 35.2571 18.2682 35.8488 18.2682 36.5761V39.9728C18.2682 40.7001 18.8598 41.2918 19.5872 41.2918H32.2925V44.4568H19.5872C18.8598 44.4568 18.2682 45.0485 18.2682 45.7759V48.4618C18.0771 48.4174 17.8853 48.3758 17.6928 48.3361C17.602 48.3174 17.5113 48.2995 17.4202 48.2818C17.3138 48.2612 17.2069 48.2419 17.1 48.2228C16.9976 48.2043 16.8954 48.1846 16.7927 48.1677V22.539ZM32.2925 28.3072V29.8421H20.5182V28.3072H32.2925ZM32.2925 37.507V39.0418H20.5182V37.507H32.2925ZM20.5182 48.2417V46.7069H32.2925V48.2417H20.5182ZM32.2925 50.4917V53.5834L31.946 53.5434C31.2191 53.44 30.503 53.2975 29.7981 53.1189C28.4315 52.7727 27.1085 52.2873 25.8403 51.6639C25.6718 51.581 25.5046 51.4952 25.338 51.4073C25.0661 51.2641 24.7966 51.1154 24.5301 50.9595C24.3338 50.8446 24.1357 50.7341 23.9368 50.6255C23.8938 50.602 23.8507 50.5788 23.8075 50.5557C23.7679 50.5345 23.7286 50.5126 23.689 50.4917H32.2925ZM71.9334 57.8626L57.0869 71.2152C55.8576 72.2119 54.3832 72.8708 52.8204 73.1218L29.8261 76.4363C29.821 76.4371 29.8001 76.4403 29.7951 76.4411C29.1072 76.5499 28.3906 76.5042 27.6646 76.3055L11.3375 70.1226V50.1148H13.1104C13.9262 50.1148 14.7388 50.1666 15.5446 50.2638C15.7082 50.2835 15.8712 50.3052 16.034 50.3287C16.0577 50.3321 16.0812 50.3358 16.1047 50.3393C16.5158 50.4002 16.9233 50.4742 17.3273 50.5591C17.453 50.5857 17.5788 50.6125 17.704 50.6414C17.7666 50.6558 17.8289 50.6711 17.8913 50.686C18.0545 50.7254 18.2174 50.7663 18.3797 50.8098C18.4089 50.8176 18.4383 50.8252 18.4675 50.8332C19.7385 51.1797 20.9761 51.6496 22.161 52.2373C22.1964 52.2548 22.2316 52.2726 22.2668 52.2905C22.4175 52.3663 22.5672 52.4445 22.7161 52.524C22.7614 52.5483 22.807 52.5721 22.8522 52.5967C23.0314 52.6944 23.2096 52.7941 23.386 52.8973C23.3887 52.8988 23.3913 52.9002 23.3939 52.9017C23.8721 53.1813 24.3581 53.4427 24.8517 53.6852C26.9902 54.7363 29.2684 55.4372 31.6448 55.7734C31.6545 55.7748 31.664 55.776 31.6737 55.7771L33.2888 55.9631L34.6042 56.1146L37.6377 56.4639L38.3904 56.5506C38.3906 56.5506 38.3907 56.5506 38.3909 56.5506L43.6489 57.156C45.7444 57.4587 47.3527 59.1392 47.5623 61.2472L47.6014 61.6393L26.5145 59.5841C25.8942 59.5237 25.3458 59.9763 25.2855 60.5948C25.2254 61.2132 25.6778 61.7634 26.2962 61.8237L48.6507 64.0025C48.6976 64.0113 48.7453 64.0182 48.794 64.0208L53.2693 64.272C53.2904 64.2732 53.3115 64.2737 53.3324 64.2737C53.3547 64.2737 53.3765 64.2701 53.3988 64.2687C53.4243 64.2672 53.4497 64.2663 53.475 64.2631C53.5073 64.2589 53.5389 64.2518 53.5708 64.2449C53.5957 64.2395 53.6208 64.2352 53.6451 64.2281C53.6789 64.2183 53.7117 64.2051 53.7444 64.192C53.7652 64.1838 53.7864 64.1774 53.8066 64.168C53.8588 64.1437 53.9096 64.1157 53.9581 64.0834L64.1306 57.2755L64.1308 57.2753L68.9763 54.0325C70.0795 53.2912 71.5856 53.582 72.3333 54.6809C73.0168 55.6853 72.8471 57.0511 71.9334 57.8626Z" fill="white"/>
</svg>
