<svg width="82" height="82" viewBox="0 0 82 82" fill="none" xmlns="http://www.w3.org/2000/svg">
<path d="M69.1912 28.5991C69.8068 30.1656 70.2897 31.7811 70.6347 33.4285C70.6918 33.7004 70.8405 33.9444 71.0561 34.1198C71.2716 34.2951 71.5408 34.3911 71.8187 34.3917C71.9024 34.3917 71.9858 34.3831 72.0678 34.3661C72.2235 34.3336 72.3713 34.2707 72.5027 34.181C72.6342 34.0913 72.7466 33.9766 72.8337 33.8435C72.9208 33.7103 72.9807 33.5613 73.0102 33.405C73.0397 33.2487 73.038 33.088 73.0054 32.9323C72.6327 31.1524 72.1114 29.4069 71.4471 27.7141C71.3295 27.4151 71.098 27.1751 70.8035 27.0468C70.509 26.9185 70.1756 26.9125 69.8766 27.03C69.5776 27.1476 69.3376 27.3791 69.2093 27.6736C69.0811 27.9681 69.075 28.3015 69.1926 28.6005L69.1912 28.5991Z" fill="white"/>
<path d="M80.789 36.8979H77.7367C77.1683 29.24 74.221 21.9511 69.307 16.0502C64.393 10.1494 57.7579 5.93158 50.3293 3.98651C50.0253 2.84488 49.3532 1.83543 48.4171 1.11467C47.481 0.393908 46.3333 0.00210243 45.1519 0H36.8481C35.666 0.00207739 34.5176 0.394366 33.5813 1.11596C32.645 1.83756 31.9731 2.84809 31.67 3.99067C24.2503 5.9514 17.625 10.1731 12.7134 16.0698C7.80179 21.9666 4.84751 29.246 4.26054 36.8979H1.21097C1.05192 36.8978 0.894408 36.9291 0.747445 36.9899C0.600482 37.0507 0.466949 37.1399 0.354482 37.2524C0.242015 37.3649 0.152819 37.4984 0.0919946 37.6454C0.0311699 37.7923 -9.07672e-05 37.9498 1.97954e-07 38.1089V44.3367C1.97954e-07 44.6579 0.127584 44.9659 0.354685 45.193C0.581786 45.4201 0.889801 45.5477 1.21097 45.5477H4.1519V48.6118C4.18367 56.5533 7.12268 64.2082 12.4137 70.1305C17.7047 76.0527 24.9814 79.8323 32.8692 80.7551V80.789C32.8692 81.1102 32.9968 81.4182 33.2239 81.6453C33.451 81.8724 33.759 82 34.0802 82H47.9198C48.241 82 48.549 81.8724 48.7761 81.6453C49.0032 81.4182 49.1308 81.1102 49.1308 80.789V80.7551C57.0186 79.8323 64.2952 76.0527 69.5863 70.1305C74.8773 64.2082 77.8163 56.5533 77.8481 48.6118V45.5477H80.789C81.1102 45.5477 81.4182 45.4201 81.6453 45.193C81.8724 44.9659 82 44.6579 82 44.3367V38.1089C82.0001 37.9498 81.9688 37.7923 81.908 37.6454C81.8472 37.4984 81.758 37.3649 81.6455 37.2524C81.5331 37.1399 81.3995 37.0507 81.2526 36.9899C81.1056 36.9291 80.9481 36.8978 80.789 36.8979ZM75.3106 36.8979H50.5148V6.54754C53.1243 7.29604 55.6354 8.35252 57.9951 9.69468V23.6935C57.9964 24.8401 58.4525 25.9395 59.2633 26.7502C60.0741 27.561 61.1734 28.0171 62.32 28.0184C63.4666 28.0171 64.5659 27.561 65.3767 26.7502C66.1875 25.9395 66.6436 24.8401 66.6449 23.6935V16.6775C71.6776 22.2819 74.7232 29.3885 75.3106 36.8979ZM60.417 11.2115C61.7548 12.1272 63.0266 13.1359 64.223 14.2299V23.6935C64.2222 24.198 64.0215 24.6816 63.6648 25.0383C63.3081 25.395 62.8245 25.5957 62.32 25.5965C61.8156 25.5955 61.3321 25.3948 60.9754 25.0381C60.6187 24.6814 60.418 24.1979 60.417 23.6935V11.2115ZM36.8481 2.42194H39.789V23.3544C39.789 23.6756 39.9166 23.9836 40.1437 24.2107C40.3708 24.4378 40.6788 24.5654 41 24.5654C41.3212 24.5654 41.6292 24.4378 41.8563 24.2107C42.0834 23.9836 42.211 23.6756 42.211 23.3544V2.42194H45.1519C45.9316 2.42286 46.6791 2.733 47.2304 3.28433C47.7818 3.83566 48.0919 4.58317 48.0928 5.36287V36.8979H33.9072V5.36287C33.9081 4.58317 34.2182 3.83566 34.7696 3.28433C35.3209 2.733 36.0684 2.42286 36.8481 2.42194ZM17.777 14.2549C18.9728 13.1546 20.2446 12.14 21.583 11.2184V23.6935C21.5817 24.1978 21.3808 24.6811 21.0242 25.0377C20.6676 25.3943 20.1843 25.5952 19.68 25.5965C19.1755 25.5957 18.6919 25.395 18.3352 25.0383C17.9785 24.6816 17.7778 24.198 17.777 23.6935V14.2549ZM15.3551 16.7003V23.6894C15.3564 24.836 15.8125 25.9353 16.6233 26.7461C17.434 27.5569 18.5334 28.013 19.68 28.0142C20.8266 28.013 21.9259 27.5569 22.7367 26.7461C23.5475 25.9353 24.0036 24.836 24.0049 23.6894V9.70299C26.3636 8.35659 28.8749 7.29702 31.4852 6.54685V36.8979H6.68663C7.29074 29.3993 10.3356 22.3052 15.3551 16.7017V16.7003ZM6.57384 48.6118V45.5477H8.3038V48.6118C8.34641 55.4485 10.8545 62.0402 15.3674 67.176C19.8803 72.3117 26.0948 75.6466 32.8692 76.5679V78.32C25.6265 77.4047 18.9643 73.8854 14.1257 68.4189C9.2872 62.9523 6.60293 55.9121 6.57384 48.6118ZM71.2743 45.5477V48.6118C71.2362 54.821 68.9738 60.8109 64.8973 65.4947C60.8209 70.1785 55.2006 73.2459 49.0561 74.1404C49.0561 74.1335 49.0485 74.1287 49.0457 74.1218C49.0071 74.0232 48.9557 73.9301 48.8928 73.845C48.8789 73.8256 48.863 73.809 48.8478 73.7903C48.7866 73.7164 48.717 73.6499 48.6402 73.5924C48.6291 73.5841 48.6194 73.5744 48.6084 73.5661C48.5202 73.5063 48.4246 73.4584 48.3239 73.4236C48.2997 73.4153 48.2762 73.4083 48.2547 73.4014C48.1461 73.3684 48.0333 73.3511 47.9198 73.3502H34.0802C33.967 73.3517 33.8547 73.3694 33.7466 73.4028C33.7224 73.4097 33.6989 73.4166 33.6774 73.4249C33.5768 73.4598 33.4812 73.5077 33.393 73.5675C33.382 73.5758 33.3723 73.5855 33.3612 73.5938C33.2844 73.6516 33.2147 73.7182 33.1536 73.7924C33.1391 73.8104 33.1232 73.827 33.1093 73.8464C33.0462 73.9314 32.9948 74.0245 32.9564 74.1232C32.9564 74.1294 32.9488 74.1349 32.946 74.1418C26.8009 73.2477 21.1799 70.1803 17.103 65.4961C13.0261 60.812 10.7635 54.8215 10.7257 48.6118V45.5477H71.2743ZM46.7089 79.5781H35.2911V75.7721H46.7089V79.5781ZM75.4262 48.6118C75.3974 55.9123 72.7133 62.9529 67.8747 68.4197C63.0361 73.8866 56.3737 77.406 49.1308 78.3214V76.5679C55.9052 75.6466 62.1197 72.3117 66.6326 67.176C71.1455 62.0402 73.6536 55.4485 73.6962 48.6118V45.5477H75.4262V48.6118ZM79.5781 43.1258H2.42194V39.3199H79.5781V43.1258Z" fill="white"/>
</svg>
