<svg width="232" height="80" viewBox="0 0 232 80" fill="none" xmlns="http://www.w3.org/2000/svg">
<path fill-rule="evenodd" clip-rule="evenodd" d="M99.1242 49.6169V33.9022C99.1242 29.9591 99.4885 26.7267 100.225 24.189C100.953 21.6595 102.294 19.7086 104.238 18.3365C106.191 16.9722 108.939 16.2864 112.472 16.2864C114.094 16.2864 115.542 16.5012 116.833 16.931C118.116 17.3527 119.208 17.9476 120.094 18.7001C120.988 19.4524 121.666 20.312 122.121 21.2709C122.576 22.2382 122.808 23.2385 122.808 24.2799C122.808 26.7267 122.03 28.5208 120.483 29.6369C118.935 30.7612 117.123 31.3233 115.054 31.3233C113.631 31.3233 112.125 30.794 110.544 29.7277L108.36 32.4639C109.526 33.3981 110.652 34.1503 111.744 34.7041C112.836 35.2662 113.962 35.6795 115.112 35.9358C116.262 36.192 117.504 36.3241 118.844 36.3241H119.291C120.325 36.3241 121.095 36.4399 121.6 36.6799C122.105 36.9196 122.436 37.2751 122.585 37.7545C122.734 38.2421 122.808 38.9201 122.808 39.7965V47.6826C122.808 47.8564 122.8 48.0462 122.783 48.2363C122.767 48.4351 122.758 48.6913 122.758 49.0219C122.742 49.6998 122.676 50.2123 122.551 50.5595C122.436 50.9066 122.105 51.1878 121.575 51.3944C121.037 51.6008 120.16 51.7003 118.943 51.7003H95.0034V49.6169H99.1242ZM106.82 49.6169H112.919C113.747 49.6169 114.318 49.4102 114.632 48.9888C114.955 48.5671 115.112 47.6742 115.112 46.302V40.6974C115.112 39.9535 114.996 39.4077 114.773 39.0689C114.549 38.7297 113.945 38.3002 112.969 37.7627C111.231 36.8122 109.973 36.0763 109.187 35.5474C108.409 35.0265 107.623 34.3074 106.82 33.4063V49.6169ZM106.82 31.662L109.692 27.7438C110.71 28.3388 111.479 28.6365 111.984 28.6365C112.687 28.6365 113.383 28.2479 114.078 27.4626C114.765 26.6775 115.112 25.3629 115.112 23.5027C115.112 21.7422 114.74 20.4441 113.995 19.6178C113.25 18.7828 112.315 18.3693 111.181 18.3693C109.427 18.3693 108.269 19.2707 107.697 21.0808C107.118 22.8914 106.812 25.297 106.762 28.2976C106.762 28.7355 106.771 29.2811 106.787 29.9344C106.812 30.5874 106.82 31.1658 106.82 31.662ZM148.825 30.8767L150.125 32.4143C148.337 33.5714 146.798 34.1504 145.499 34.1504C144.117 34.1504 142.685 33.2905 141.187 31.5712C140.625 30.9345 140.17 30.4632 139.839 30.1657C139.499 29.8766 139.086 29.7277 138.606 29.7277C137.075 29.7277 136.073 30.695 135.602 32.6293C135.122 34.5718 134.849 36.9942 134.774 39.8957C135.569 39.284 136.653 38.6557 138.035 38.0274C139.417 37.3909 140.534 37.0766 141.378 37.0766C142.015 37.0766 142.611 37.1759 143.165 37.366C143.802 37.5975 144.456 37.9197 145.118 38.333C145.788 38.7465 146.277 38.9531 146.591 38.9531C147.27 38.9531 147.899 38.6885 148.486 38.1676L149.479 39.499C148.66 40.4329 147.75 41.276 146.74 42.0283C146.202 42.425 145.78 42.7062 145.457 42.8714C145.143 43.0368 144.704 43.1192 144.158 43.1192C143.438 43.1192 142.66 42.8383 141.833 42.2764C140.989 41.7059 140.319 41.3091 139.814 41.0862C139.317 40.8544 138.763 40.747 138.159 40.747C137.025 40.747 135.916 41.2267 134.824 42.1853C134.824 44.7482 135.444 46.8807 136.686 48.5671C137.927 50.262 139.607 51.1048 141.734 51.1048C143.604 51.1048 145.739 50.2452 148.13 48.5259L149.082 49.5672C146.715 52.1133 143.736 53.3867 140.145 53.3867C138.423 53.3867 136.653 53.0559 134.832 52.4029C133.02 51.7415 131.431 50.5345 130.074 48.7822C128.708 47.0212 127.964 44.6405 127.831 41.6399V39.9451C127.923 38.2668 128.361 36.4979 129.122 34.6545C129.892 32.8026 131.067 31.2238 132.639 29.9094C134.22 28.5951 136.148 27.9421 138.448 27.9421C140.774 27.9421 143.256 28.7686 145.904 30.4304C146.674 30.9841 147.286 31.2653 147.733 31.2653C148.164 31.2653 148.527 31.133 148.825 30.8767ZM161.288 32.5051C161.089 33.208 160.609 34.4148 159.848 36.1177C158.706 38.6473 157.961 40.5319 157.597 41.7639C157.241 43.0037 157.059 44.2356 157.059 45.4673C157.059 46.7237 157.341 47.9638 157.912 49.1789C158.102 49.5593 158.326 49.9311 158.574 50.2948C158.822 50.6503 158.946 50.9231 158.946 51.1048C158.946 51.5016 158.632 51.7003 158.003 51.7003C157.738 51.7003 157.308 51.7003 156.72 51.7003C156.124 51.7003 155.677 51.7003 155.371 51.7003C155.115 51.7003 154.717 51.7166 154.196 51.7499C153.666 51.7827 153.286 51.7995 153.037 51.7995C152.375 51.7995 151.945 51.7003 151.746 51.5016C151.548 51.3033 151.449 50.8404 151.449 50.1131C151.449 48.2284 151.904 46.3682 152.806 44.5415C153.708 42.7146 155.057 40.4083 156.86 37.6222C157.357 36.8616 157.845 36.1012 158.333 35.349C158.822 34.5965 159.244 33.8445 159.6 33.1006C159.956 32.3647 160.138 31.7201 160.138 31.1658C160.138 30.7691 160.038 30.2733 159.848 29.6781V29.0831C159.972 28.7852 160.312 28.6365 160.841 28.6365H165.301C165.955 28.6365 166.377 28.719 166.559 28.8844C166.749 29.0498 166.84 29.3969 166.84 29.9344C166.84 31.7778 167.552 34.9191 168.984 39.3499C169.927 42.3176 170.697 44.5578 171.284 46.0707C171.864 47.5833 172.344 48.7326 172.708 49.526C173.072 50.3197 173.254 50.8157 173.254 51.014C173.254 51.3033 173.155 51.4853 172.956 51.5761C172.757 51.6588 172.393 51.7003 171.855 51.7003C171.367 51.667 170.689 51.6504 169.82 51.6504C168.967 51.6504 168.305 51.667 167.834 51.7003C167.428 51.7003 167.105 51.6092 166.849 51.4356C166.601 51.2621 166.344 50.8903 166.071 50.3113C165.798 49.7245 165.5 48.9061 165.177 47.848C164.854 46.7898 164.35 44.996 163.663 42.4746C163.506 41.8463 163.381 41.3671 163.291 41.0529C163.199 40.7304 163.108 40.3749 163.026 39.9866C162.629 38.606 162.281 37.2339 161.983 35.8699C161.826 35.0596 161.71 34.4809 161.627 34.142C161.462 33.4393 161.346 32.8937 161.288 32.5051ZM196.938 30.8767L198.237 32.4143C196.449 33.5714 194.91 34.1504 193.611 34.1504C192.229 34.1504 190.798 33.2905 189.3 31.5712C188.737 30.9345 188.282 30.4632 187.951 30.1657C187.611 29.8766 187.198 29.7277 186.718 29.7277C185.187 29.7277 184.186 30.695 183.714 32.6293C183.234 34.5718 182.961 36.9942 182.886 39.8957C183.681 39.284 184.765 38.6557 186.147 38.0274C187.529 37.3909 188.646 37.0766 189.49 37.0766C190.127 37.0766 190.723 37.1759 191.277 37.366C191.915 37.5975 192.568 37.9197 193.23 38.333C193.901 38.7465 194.389 38.9531 194.704 38.9531C195.382 38.9531 196.011 38.6885 196.598 38.1676L197.591 39.499C196.772 40.4329 195.862 41.276 194.853 42.0283C194.315 42.425 193.892 42.7062 193.569 42.8714C193.255 43.0368 192.817 43.1192 192.271 43.1192C191.551 43.1192 190.773 42.8383 189.945 42.2764C189.101 41.7059 188.431 41.3091 187.926 41.0862C187.43 40.8544 186.875 40.747 186.271 40.747C185.137 40.747 184.028 41.2267 182.936 42.1853C182.936 44.7482 183.557 46.8807 184.798 48.5671C186.039 50.262 187.719 51.1048 189.846 51.1048C191.716 51.1048 193.851 50.2452 196.243 48.5259L197.194 49.5672C194.828 52.1133 191.848 53.3867 188.257 53.3867C186.536 53.3867 184.765 53.0559 182.944 52.4029C181.132 51.7415 179.543 50.5345 178.186 48.7822C176.821 47.0212 176.076 44.6405 175.943 41.6399V39.9451C176.035 38.2668 176.473 36.4979 177.234 34.6545C178.004 32.8026 179.179 31.2238 180.751 29.9094C182.332 28.5951 184.26 27.9421 186.561 27.9421C188.886 27.9421 191.369 28.7686 194.017 30.4304C194.786 30.9841 195.399 31.2653 195.845 31.2653C196.276 31.2653 196.64 31.133 196.938 30.8767ZM231.735 29.2811H218.726V27.198H220.861C220.861 23.8831 220.34 21.5852 219.306 20.2955C218.263 19.0144 216.997 18.3693 215.491 18.3693C214.473 18.3693 213.513 18.692 212.619 19.3282C211.726 19.9733 210.989 21.0892 210.41 22.668C209.831 24.247 209.541 26.3717 209.541 29.0333C209.541 30.9925 209.681 32.8607 209.963 34.6382C210.244 36.4155 210.699 38.6142 211.32 41.2346C212.048 44.1198 212.412 46.517 212.412 48.4267C212.412 48.6414 212.396 48.8814 212.354 49.1377C212.313 49.4018 212.255 49.6581 212.189 49.9144C212.123 50.1706 212.065 50.3694 212.024 50.5098C211.982 50.6668 211.949 50.8073 211.908 50.915C211.875 51.0224 211.841 51.1216 211.817 51.1962C212.139 51.4026 212.537 51.5016 213.016 51.5016C214.216 51.5016 215.433 50.915 216.666 49.7411C217.907 48.5671 218.925 47.0296 219.719 45.1365C220.514 43.2434 220.911 41.3007 220.911 39.3003C220.911 38.763 220.894 38.3663 220.861 38.1101H218.726V36.0266H231.735V38.1101H229.699C229.6 40.1764 229.046 42.1026 228.028 43.8964C227.01 45.6821 225.669 47.2525 224.014 48.5918C222.359 49.9393 220.547 50.9727 218.594 51.7003C216.633 52.4276 214.721 52.7913 212.859 52.7913C211.452 52.7913 210.244 52.593 209.235 52.1963V51.5016C209.235 50.6419 209.177 49.8899 209.053 49.2535C208.937 48.6168 208.606 47.79 208.068 46.7899C207.53 45.7811 206.677 44.5082 205.519 42.9709C204.153 41.2267 203.119 39.6888 202.424 38.3579C201.729 37.0354 201.291 35.878 201.092 34.9023C200.902 33.9269 200.802 32.8441 200.802 31.662C200.802 28.5538 201.489 25.8342 202.854 23.5027C204.228 21.1716 206.073 19.3862 208.399 18.1461C210.716 16.9063 213.248 16.2864 215.987 16.2864C220.63 16.2864 223.965 17.4351 225.992 19.7249C228.019 22.0234 229.253 24.5114 229.699 27.198H231.735V29.2811Z" fill="white"/>
<path fill-rule="evenodd" clip-rule="evenodd" d="M50.7755 2.45326C50.1564 1.97283 46.5993 2.08714 45.7531 5.44149C45.6286 5.93649 45.6471 6.37618 45.4783 6.87587C45.1192 7.94214 43.6764 9.54365 42.7094 8.30826C42.0891 7.51578 43.1611 5.87082 41.3471 4.50903C40.9878 4.23968 40.646 4.19673 40.2548 3.93849C39.0952 3.17267 39.0883 2.13651 39.8243 1.10777C39.9839 0.884834 40.1451 0.855703 40.1199 0.570803C39.349 0.15728 36.2647 1.76175 37.3823 5.34348C37.5462 5.8681 37.8121 6.24805 37.9712 6.79464C38.1398 7.37358 38.0343 8.05027 37.8482 8.55835C37.6351 9.13753 37.362 9.37849 36.9061 9.6582C36.4508 9.93767 35.6224 10.1105 35.5167 9.38491C35.3815 8.4559 36.2027 7.01042 35.2258 5.96932C33.7568 4.40287 32.035 5.5042 30.4518 4.61593C30.0203 4.37399 29.634 3.95725 29.5777 3.46226C29.4126 2.00369 31.0064 1.35539 31.0059 0.891747C29.4585 1.1727 27.2825 2.49893 26.5977 3.89331C24.8455 7.45949 28.5973 10.073 26.9993 12.8901C26.8354 13.1794 26.3261 13.79 25.939 13.2757C25.6215 12.855 25.6524 11.7522 24.0573 11.379C22.4999 11.0146 22.0609 11.1027 21.4347 9.28912C21.3307 8.98891 21.369 8.76573 21.2716 8.5028C21.045 8.5665 21.0316 8.67562 20.9137 8.91707C20.6018 9.55599 20.4333 10.0722 20.4367 10.7988C20.4414 11.8959 20.5391 12.6264 20.9624 13.4621C21.4562 14.438 22.8805 15.2836 22.6958 16.4676C22.6318 16.8802 22.2611 17.207 21.8417 17.2596C21.1391 17.3473 20.9194 16.4795 19.7077 16.2467C18.014 15.9218 16.0787 16.9992 15.2795 14.3655C15.0093 13.475 15.1692 12.3109 15.1621 11.419C14.5865 11.711 13.6582 13.6752 13.505 14.1902C12.7453 16.7479 13.721 18.9471 15.1865 20.8907C15.5177 21.3289 15.8447 21.6916 16.157 22.1476C16.9911 23.3655 16.5119 24.8156 14.8403 24.4285C14.2588 24.2935 13.8826 23.8079 13.5537 23.4788C12.3556 22.2807 12.0145 22.3031 10.2359 22.3298C9.58588 22.3392 8.83655 22.5754 8.14654 22.4402C6.68052 22.1523 5.77747 20.4678 5.30766 19.1683C5.21993 18.9246 5.26466 18.9053 5.07214 18.8379C4.67894 19.2371 4.57959 21.5652 4.63891 22.3246C4.80795 24.4737 5.667 26.3952 7.06556 27.7935C7.96613 28.6946 8.26344 28.7334 9.58712 29.2928C11.9258 30.2813 11.7792 32.1598 10.29 32.3146C8.43372 32.5072 8.16533 31.9085 6.01423 34.0386C5.732 34.3183 5.24538 34.6187 4.82475 34.8266C4.17379 35.1485 3.91627 35.1456 3.0713 35.1016C3.23788 35.7907 4.57045 36.5079 5.18039 36.6883C6.35083 37.0342 7.40266 36.5962 8.56124 36.8142C9.66793 37.0226 11.4807 38.9142 10.3846 39.8669C10.0601 40.1484 9.47491 40.1293 9.00337 40.331C6.97511 41.1964 7.12833 43.2724 5.68924 44.293C4.92657 44.8334 3.9049 45.063 2.71048 44.9726C1.7197 44.8976 0.251206 44.0034 0.00678587 44.0266C-0.108875 44.6233 1.2882 46.528 1.58946 46.8346C2.29751 47.5567 3.19043 48.2502 4.32479 48.5637C5.17964 48.8008 5.28542 48.841 6.28386 48.841C7.00649 48.8405 7.71924 48.8565 8.37218 48.6919C9.73169 48.3485 10.6948 47.8592 12.2434 48.3662C13.9454 48.9239 13.398 50.5729 12.2923 50.7748C8.63464 51.4434 9.68128 54.396 8.97965 56.3632C8.67221 57.2255 8.05387 57.7094 7.30084 58.0679C7.00699 58.2076 6.65852 58.2239 6.51444 58.4547C6.71092 58.7782 7.86901 58.9011 8.19647 58.9004C10.0268 58.8942 11.4093 58.1753 12.4925 56.8199C14.565 54.2262 18.2365 55.8084 15.4102 57.6966C13.2959 59.109 13.0293 61.3768 13.4314 63.8034C13.8297 66.2053 14.0393 67.7957 12.0041 69.3273C11.8084 69.4747 11.543 69.6263 11.3838 69.7747C11.6045 70.0122 12.1047 69.9564 12.4067 69.9551C12.7997 69.9539 13.2344 69.9737 13.6212 69.9539C16.5325 69.8065 17.8588 68.1322 18.71 65.575C19.2925 63.8251 20.2897 62.2851 22.5463 62.295C23.2741 62.2979 24.1102 62.2132 24.4713 62.7104C24.9621 63.3859 24.2849 63.9688 23.9177 64.1569C22.9286 64.6635 21.7407 65.4167 22.3256 66.9541C22.8681 68.3788 24.6653 69.3767 22.9131 72.0075C22.6973 72.3318 22.6022 72.4205 22.3575 72.6637C22.2507 72.7701 22.1811 72.8496 22.0689 72.9481C21.8378 73.1505 21.8348 73.0456 21.7745 73.3172C23.6814 73.807 25.8147 72.9056 26.5146 71.7779C26.804 71.3112 27.0897 70.5884 27.1624 70.0285C27.2674 69.2207 27.0324 68.0253 28.3405 67.0476C29.8634 65.9088 31.7836 66.5981 30.6287 67.7377C30.3566 68.006 30.1335 68.4151 30.171 68.9698C30.2872 70.6723 32.4806 70.9081 31.665 72.853C31.5832 73.0478 31.4826 73.1895 31.5222 73.389C31.6035 73.7993 33.2578 72.6093 33.5675 72.1363C34.5187 70.6822 32.745 69.5061 34.7431 68.5358C35.008 68.4072 35.7364 68.1808 36.071 68.1581C37.8111 68.0406 37.1809 69.2384 37.0544 70.3195C36.7061 73.3038 39.031 73.2969 39.6162 74.6545C40.2054 76.0217 39.0409 77.3139 38.2236 78.1283C38.0679 78.2834 37.9127 78.3994 37.7392 78.5347C37.5439 78.6868 37.3761 78.7226 37.3494 79.0312C38.0098 79.2472 40.0259 78.6537 40.6025 78.3999C42.4469 77.5869 44.1168 76.5821 45.0891 74.791C45.6654 73.7292 45.7344 72.7259 45.5492 71.3409C45.3725 70.0161 45.682 68.8829 46.4703 68.3341C47.0059 67.9616 47.5142 67.9448 47.8353 68.4914C48.136 69.0032 47.8081 69.5369 48.009 70.2146C48.332 71.3053 49.1412 71.7685 49.9036 72.3457C51.224 73.345 50.1848 74.4921 50.3346 75.4894C51.0412 75.6247 52.9333 73.865 52.9113 71.5764C52.9009 70.5012 52.2603 70.0583 51.9756 69.1997C51.7196 68.4287 52.2966 67.2999 52.9026 66.9896C53.9463 66.4551 54.1247 67.9517 54.4942 68.5869C55.2349 69.8611 57.8666 69.7974 58.3851 71.3332C58.6209 72.0312 58.3276 72.7229 58.0258 73.3167C57.9462 73.4732 57.8466 73.5386 57.8276 73.6959C57.7898 74.0077 57.7725 73.4255 57.8449 73.8433C57.9166 74.2588 59.759 73.0967 60.5268 71.9963C61.4393 70.6881 61.7435 68.0971 60.7485 66.5457C60.0452 65.4486 58.8416 65.3731 58.8416 63.8071C58.8416 61.6792 59.8924 62.0841 60.7898 63.4471C61.8354 65.0343 63.0709 65.9621 65.2781 65.9596C66.4154 65.9579 66.7144 65.7797 67.3807 65.7582C69.628 65.6859 70.0086 66.6995 71.1511 68.4519C71.2764 68.6437 71.265 68.7017 71.4642 68.7514C71.5999 68.4531 71.5779 67.3441 71.5786 66.9281C71.5804 66.2468 71.5176 65.7207 71.3661 65.1086C71.0913 63.9945 70.6625 63.0487 70.1096 62.2925C68.1214 59.5711 66.3904 60.2826 65.417 58.8268C64.7368 57.8096 64.4645 56.1694 65.6584 56.2291C66.5449 56.2738 67.1613 58.3506 70.1445 57.1418C70.6546 56.9347 71.2729 56.7651 71.9034 57.0043C72.3841 57.186 72.796 57.4697 73.1771 57.7615C73.4314 57.9558 73.9541 58.6737 74.2354 58.6767C74.3127 57.6119 73.6294 56.398 73.1393 55.8889C72.4006 55.1214 72.0381 54.7338 70.7235 54.2975C69.6519 53.9418 68.716 53.5791 68.3078 52.6918C68.0895 52.2181 67.9501 51.6265 68.0633 51.0254C68.1706 50.4576 68.65 50.128 69.1918 50.4657C70.2194 51.1073 69.8818 51.6302 71.9758 51.6401C73.1603 51.6453 74.1187 50.8659 74.7477 50.3926C76.5844 49.0121 78.1103 50.9982 78.8408 52.4906C78.9762 52.7679 78.9844 53.0634 79.2451 53.0974C79.6302 52.2926 79.4399 49.8162 79.1707 48.9768C78.5801 47.1346 77.1499 46.1214 75.3702 45.8283C74.1308 45.6241 72.8175 45.7036 71.8841 44.7201C71.3822 44.1908 71.502 43.4867 72.0363 43.0978C72.8291 42.5221 74.2974 42.8075 75.565 42.0382C76.5745 41.426 77.1588 40.5962 77.8513 39.6662C78.5272 38.7587 79.3561 38.0368 80.4561 37.6203C81.0302 37.4028 81.7696 37.3152 82.4821 37.3993C83.1361 37.4764 83.9343 37.7097 84.5774 37.7171C84.2376 35.7507 80.1024 33.2152 76.9514 33.5307C75.6863 33.6571 74.6871 33.8887 73.3113 33.8561C72.6618 33.8406 72.3482 33.5969 72.0077 33.2557C71.7353 32.9829 71.2969 32.4114 71.5722 31.8016C71.8423 31.2022 72.4231 31.53 73.0405 31.2893C74.8698 30.5761 74.4217 28.923 76.6954 28.9904C78.0836 29.0316 78.9827 30.0742 79.5076 30.1816C79.4641 29.2654 78.6139 27.6113 78.1439 27.1249C77.4272 26.3833 76.7846 25.6819 75.3633 25.4452C72.8086 25.0198 70.7653 26.8238 69.9549 26.4554C69.2842 26.1503 69.4189 25.4444 69.8739 25.0751C70.0708 24.9154 70.3372 24.8213 70.6079 24.7319C71.4049 24.4675 72.0141 23.9424 72.4481 23.188C74.0577 20.3878 71.7546 17.0258 75.3668 14.9481L76.5231 14.462C76.6017 14.4432 76.6558 14.4487 76.7386 14.4254L76.9695 14.303C76.8397 14.1183 76.9794 14.2267 76.6904 14.109C74.4496 13.1965 70.9136 13.69 69.0529 15.077C67.9257 15.9166 66.9561 16.9923 65.9664 17.9852C64.8441 19.112 63.4752 18.3686 63.9072 17.2058C64.186 16.455 64.9652 16.0766 65.368 14.6284C65.9555 12.5141 64.357 10.6637 66.0907 8.93509C66.1878 8.83807 66.2567 8.78301 66.3499 8.68624C66.4992 8.5307 66.5061 8.5707 66.514 8.30135C65.1572 8.15989 64.1781 8.83412 63.6309 9.5355C63.0232 10.3144 62.7323 11.332 62.2076 12.1932C61.657 13.0965 60.9193 13.6211 59.4725 13.4086C58.891 13.3234 58.4103 13.0123 58.6071 12.2941C58.7054 11.9337 59.3075 11.4343 59.5788 11.22C61.3174 9.84879 60.9193 6.93857 59.587 5.2709C59.279 4.88552 58.9456 4.57396 58.6535 4.16266C56.7637 1.50228 59.3569 0.731522 59.325 0.0572935C58.3656 -0.152554 56.7819 0.255291 56.0433 0.61376C52.3705 2.39574 54.5191 6.45395 52.8324 9.06618C52.3794 9.76708 51.3484 10.7107 50.3909 10.443C49.2835 10.1332 50.0697 8.47367 49.5853 7.36666C48.918 5.8407 48.0107 4.94058 49.6982 3.3282C49.8514 3.18156 50.0484 3.03294 50.233 2.90974C50.4794 2.74409 50.7493 2.72878 50.7755 2.45326ZM41.9909 13.6285C55.9874 13.6285 67.3338 24.9625 67.3338 38.9443C67.3338 52.9259 55.9874 64.2606 41.9909 64.2606C27.9947 64.2606 16.6486 52.9259 16.6486 38.9443C16.6486 24.9625 27.9947 13.6285 41.9909 13.6285ZM58.5781 22.7947L53.3052 22.8006L51.5933 26.8181H32.3686L30.654 22.7929H25.406C29.613 18.4824 35.4887 15.805 41.9909 15.805C48.4946 15.805 54.3709 18.4834 58.5781 22.7947ZM25.2777 22.924L29.0414 31.8394H54.9106L58.7047 22.9245C62.6992 27.082 65.155 32.7267 65.155 38.9443C65.155 51.6979 54.8263 62.0407 42.0698 62.0831L47.4945 49.376L52.9809 36.5254H42.0087H31.036L36.5223 49.376L41.9472 62.0836C29.1746 62.0594 18.8274 51.7095 18.8274 38.9443C18.8274 32.7264 21.283 27.0815 25.2777 22.924ZM42.0117 59.3576L51.2559 37.626L32.8345 37.6529L42.0117 59.3576ZM41.9909 12.4808C56.6223 12.4808 68.4827 24.3288 68.4827 38.9443C68.4827 53.5601 56.6223 65.4084 41.9909 65.4084C27.3603 65.4084 15.4997 53.5601 15.4997 38.9443C15.4997 24.3288 27.3603 12.4808 41.9909 12.4808Z" fill="white"/>
<path d="M100.617 61.0846V60.8311C100.617 59.1545 99.673 58.6743 97.9337 58.6743C96.0104 58.6743 94.8479 58.9972 94.8479 61.1634V62.8572C94.8479 65.25 96.1503 65.3724 97.9337 65.3724C99.9792 65.3724 100.617 64.8744 100.617 63.032V62.8399H98.8165V63.032C98.8165 63.8003 98.467 63.8529 97.7414 63.8529C96.6923 63.8529 96.6486 63.4423 96.6486 62.4644V61.4426C96.6486 60.5081 96.7447 60.1936 97.7414 60.1936C98.3358 60.1936 98.8165 60.3072 98.8165 60.8311V61.0846H100.617ZM104.7 60.2551H106.466V58.7353H101.186V60.2551H102.951V65.285H104.7V60.2551ZM108.958 63.4685H110.505C112.332 63.4685 112.743 62.8923 112.743 61.0498C112.743 59.3379 112.131 58.7353 110.505 58.7353H107.209V65.285H108.958V63.4685ZM108.958 60.1677H110.155C110.837 60.1677 110.942 60.3946 110.942 61.0671C110.942 61.9144 110.819 62.0363 110.155 62.0363H108.958V60.1677ZM116.563 65.3724C118.338 65.3724 119.597 64.9532 119.597 62.9357V61.0846C119.597 59.0671 118.338 58.6743 116.563 58.6743C114.788 58.6743 113.53 59.0671 113.53 61.0846V62.9357C113.53 64.9532 114.788 65.3724 116.563 65.3724ZM116.563 63.8529C115.654 63.8529 115.331 63.722 115.331 62.7439V61.268C115.331 60.2899 115.654 60.1936 116.563 60.1936C117.472 60.1936 117.795 60.2983 117.795 61.268V62.7439C117.795 63.722 117.472 63.8529 116.563 63.8529ZM122.219 58.7353H120.558V65.285H122.936L124.903 60.971H124.964V65.285H126.625V58.7353H124.326L122.28 63.0493H122.219V58.7353ZM130.882 60.2551H132.648V58.7353H127.368V60.2551H129.134V65.285H130.882V60.2551ZM135.14 60.1677H138.121V58.7353H133.391V65.285H138.182V63.8529H135.14V62.5777H137.937V61.3638H135.14V60.1677ZM140.026 58.7353V63.032C140.026 63.6783 139.86 63.9227 139.38 63.9227C139.144 63.9227 139.004 63.9138 138.846 63.8615V65.2761C139.117 65.3287 139.362 65.3549 139.738 65.3549C141.067 65.3549 141.687 64.438 141.687 63.0058V60.2551H143.584V65.285H145.333V58.7353H140.026ZM148.218 58.7353H146.469V65.285H149.843C151.163 65.285 151.863 64.7434 151.863 63.2764C151.863 61.8092 151.181 61.268 149.843 61.268H148.218V58.7353ZM148.218 62.6303H149.433C149.931 62.6303 150.115 62.7523 150.115 63.2939C150.115 63.8003 149.931 63.9227 149.433 63.9227H148.218V62.6303ZM154.573 58.7353H152.824V65.285H154.573V62.7175H156.855V65.285H158.603V58.7353H156.855V61.1982H154.573V58.7353ZM163.708 64.1585L164.049 65.285H165.832L163.839 58.7353H161.182L159.215 65.285H161.033L161.356 64.1585H163.708ZM163.35 62.8923H161.732L162.528 60.0452H162.545L163.35 62.8923ZM169.994 65.285H171.742V58.7353H168.385C166.829 58.7353 166.269 59.3989 166.269 60.8051C166.269 61.8618 166.593 62.4118 167.441 62.7701L166.016 65.285H168.018L169.172 62.9794H169.994V65.285ZM169.994 61.5473H168.813C168.315 61.5473 168.018 61.3727 168.018 60.8661C168.018 60.3072 168.184 60.1677 168.682 60.1677H169.994V61.5473ZM177.774 58.7353H176.025V65.285H177.774V62.7175H178.298L180.125 65.285H182.293L179.793 61.9492L182.101 58.7353H179.985L178.298 61.1982H177.774V58.7353ZM185.72 65.3724C187.495 65.3724 188.754 64.9532 188.754 62.9357V61.0846C188.754 59.0671 187.495 58.6743 185.72 58.6743C183.946 58.6743 182.687 59.0671 182.687 61.0846V62.9357C182.687 64.9532 183.946 65.3724 185.72 65.3724ZM185.72 63.8529C184.811 63.8529 184.488 63.722 184.488 62.7439V61.268C184.488 60.2899 184.811 60.1936 185.72 60.1936C186.63 60.1936 186.953 60.2983 186.953 61.268V62.7439C186.953 63.722 186.63 63.8529 185.72 63.8529ZM189.715 58.7353V65.285H191.464L191.289 60.2635L191.367 60.2462L193.02 65.285H194.532L196.175 60.2462L196.254 60.2635L196.079 65.285H197.828V58.7353H194.987L193.798 62.8486H193.736L192.486 58.7353H189.715ZM198.964 58.7353V65.285H200.713V60.2551H202.995V65.285H204.743V58.7353H198.964ZM209.848 64.1585L210.189 65.285H211.972L209.979 58.7353H207.322L205.355 65.285H207.173L207.496 64.1585H209.848ZM209.49 62.8923H207.872L208.668 60.0452H208.685L209.49 62.8923ZM214.333 58.7353H212.584V65.285H214.333V62.7175H216.614V65.285H218.363V58.7353H216.614V61.1982H214.333V58.7353ZM221.16 58.7353H219.499V65.285H221.877L223.844 60.971H223.905V65.285H225.566V58.7353H223.267L221.221 63.0493H221.16V58.7353ZM230.252 65.285H232V58.7353H228.643C227.087 58.7353 226.528 59.3989 226.528 60.8051C226.528 61.8618 226.851 62.4118 227.699 62.7701L226.274 65.285H228.276L229.43 62.9794H230.252V65.285ZM230.252 61.5473H229.071C228.573 61.5473 228.276 61.3727 228.276 60.8661C228.276 60.3072 228.442 60.1677 228.941 60.1677H230.252V61.5473Z" fill="white"/>
</svg>
