<svg width="311" height="106" viewBox="0 0 311 106" fill="none" xmlns="http://www.w3.org/2000/svg">
<path fill-rule="evenodd" clip-rule="evenodd" d="M132.871 66.5093V45.4446C132.871 40.1589 133.36 35.8261 134.347 32.4244C135.323 29.0337 137.12 26.4187 139.727 24.5794C142.345 22.7506 146.027 21.8313 150.764 21.8313C152.938 21.8313 154.879 22.1192 156.61 22.6954C158.329 23.2606 159.793 24.0581 160.98 25.0668C162.178 26.0752 163.088 27.2275 163.698 28.5128C164.308 29.8094 164.618 31.1503 164.618 32.5462C164.618 35.826 163.576 38.2309 161.502 39.7271C159.427 41.2341 156.998 41.9877 154.225 41.9877C152.317 41.9877 150.298 41.2781 148.179 39.8488L145.251 43.5166C146.815 44.7688 148.324 45.7771 149.788 46.5194C151.252 47.273 152.761 47.8269 154.302 48.1704C155.844 48.514 157.508 48.691 159.305 48.691H159.904C161.291 48.691 162.322 48.8462 162.999 49.1679C163.676 49.4892 164.12 49.9657 164.319 50.6084C164.519 51.262 164.618 52.1707 164.618 53.3455V63.9165C164.618 64.1495 164.607 64.4039 164.585 64.6588C164.563 64.9252 164.552 65.2687 164.552 65.7118C164.53 66.6205 164.441 67.3075 164.275 67.7728C164.12 68.2381 163.676 68.615 162.966 68.892C162.245 69.1687 161.069 69.3021 159.438 69.3021H127.348V66.5093H132.871ZM143.188 66.5093H151.363C152.472 66.5093 153.237 66.2323 153.659 65.6674C154.092 65.1022 154.302 63.9052 154.302 62.0659V54.5531C154.302 53.556 154.147 52.8243 153.848 52.3703C153.548 51.9156 152.738 51.3398 151.43 50.6193C149.1 49.3453 147.414 48.3587 146.36 47.6499C145.318 46.9516 144.264 45.9876 143.188 44.7797V66.5093ZM143.188 42.4417L147.037 37.1895C148.401 37.987 149.433 38.3861 150.109 38.3861C151.052 38.3861 151.984 37.8652 152.916 36.8126C153.837 35.7602 154.302 33.998 154.302 31.5044C154.302 29.1445 153.803 27.4045 152.805 26.2969C151.807 25.1777 150.553 24.6234 149.033 24.6234C146.682 24.6234 145.129 25.8316 144.363 28.258C143.587 30.685 143.176 33.9096 143.11 37.9318C143.11 38.5188 143.121 39.2502 143.143 40.1258C143.176 41.0012 143.188 41.7765 143.188 42.4417ZM199.493 41.389L201.235 43.45C198.839 45.0011 196.776 45.7772 195.035 45.7772C193.182 45.7772 191.263 44.6245 189.255 42.3199C188.501 41.4664 187.891 40.8347 187.447 40.4359C186.992 40.0484 186.438 39.8488 185.795 39.8488C183.742 39.8488 182.4 41.1454 181.768 43.7383C181.125 46.342 180.758 49.5891 180.658 53.4786C181.723 52.6585 183.177 51.8163 185.029 50.9741C186.882 50.121 188.379 49.6997 189.51 49.6997C190.365 49.6997 191.163 49.8327 191.906 50.0875C192.761 50.3979 193.637 50.8298 194.524 51.3838C195.423 51.9381 196.077 52.2151 196.499 52.2151C197.408 52.2151 198.251 51.8603 199.039 51.1621L200.37 52.9468C199.272 54.1987 198.052 55.3288 196.699 56.3372C195.978 56.869 195.412 57.2459 194.979 57.4673C194.558 57.689 193.97 57.7995 193.238 57.7995C192.273 57.7995 191.23 57.4229 190.12 56.6697C188.989 55.905 188.091 55.3732 187.414 55.0743C186.748 54.7636 186.005 54.6196 185.195 54.6196C183.676 54.6196 182.189 55.2626 180.725 56.5476C180.725 59.983 181.557 62.8416 183.221 65.1022C184.885 67.3741 187.137 68.5038 189.987 68.5038C192.495 68.5038 195.356 67.3515 198.562 65.0469L199.837 66.4428C196.665 69.8557 192.672 71.5626 187.858 71.5626C185.55 71.5626 183.177 71.1192 180.736 70.2439C178.307 69.3573 176.177 67.7394 174.358 65.3904C172.528 63.0299 171.53 59.8387 171.352 55.8166V53.5448C171.474 51.2951 172.062 48.924 173.082 46.4529C174.114 43.9706 175.689 41.8543 177.797 40.0924C179.915 38.3305 182.5 37.4552 185.583 37.4552C188.701 37.4552 192.029 38.5632 195.578 40.7907C196.61 41.533 197.431 41.9099 198.03 41.9099C198.607 41.9099 199.094 41.7325 199.493 41.389ZM216.199 43.5718C215.933 44.514 215.289 46.1316 214.269 48.4143C212.738 51.8051 211.74 54.3314 211.252 55.9827C210.775 57.6447 210.531 59.296 210.531 60.947C210.531 62.6311 210.908 64.2934 211.673 65.9223C211.928 66.4322 212.228 66.9306 212.561 67.4181C212.893 67.8946 213.06 68.2603 213.06 68.5038C213.06 69.0357 212.639 69.3021 211.795 69.3021C211.44 69.3021 210.864 69.3021 210.076 69.3021C209.277 69.3021 208.678 69.3021 208.268 69.3021C207.924 69.3021 207.391 69.3239 206.692 69.3686C205.983 69.4126 205.472 69.4351 205.14 69.4351C204.252 69.4351 203.676 69.3021 203.409 69.0357C203.143 68.7699 203.01 68.1494 203.01 67.1745C203.01 64.6482 203.62 62.1546 204.829 59.706C206.038 57.2571 207.847 54.1656 210.264 50.431C210.93 49.4114 211.584 48.3922 212.239 47.3838C212.893 46.3751 213.459 45.3671 213.936 44.37C214.413 43.3835 214.657 42.5195 214.657 41.7765C214.657 41.2447 214.524 40.5802 214.269 39.7823V38.9848C214.435 38.5854 214.89 38.3861 215.6 38.3861H221.579C222.455 38.3861 223.021 38.4967 223.265 38.7184C223.52 38.9401 223.642 39.4054 223.642 40.1258C223.642 42.5969 224.596 46.8077 226.515 52.7469C227.78 56.725 228.811 59.7279 229.599 61.7558C230.376 63.7834 231.019 65.3239 231.507 66.3875C231.995 67.4515 232.239 68.1163 232.239 68.3821C232.239 68.7699 232.106 69.0138 231.84 69.1356C231.573 69.2465 231.085 69.3021 230.364 69.3021C229.71 69.2574 228.8 69.2352 227.636 69.2352C226.493 69.2352 225.606 69.2574 224.973 69.3021C224.43 69.3021 223.997 69.1799 223.653 68.9473C223.321 68.7146 222.977 68.2163 222.61 67.4402C222.245 66.6536 221.845 65.5566 221.413 64.1382C220.98 62.7198 220.303 60.3153 219.382 56.9355C219.172 56.0933 219.005 55.4509 218.883 55.0297C218.761 54.5975 218.639 54.1209 218.529 53.6004C217.996 51.7498 217.531 49.9105 217.131 48.0821C216.92 46.996 216.765 46.2203 216.654 45.7659C216.432 44.8241 216.277 44.0927 216.199 43.5718ZM263.986 41.389L265.728 43.45C263.331 45.0011 261.268 45.7772 259.527 45.7772C257.675 45.7772 255.755 44.6245 253.748 42.3199C252.993 41.4664 252.383 40.8347 251.94 40.4359C251.485 40.0484 250.93 39.8488 250.287 39.8488C248.235 39.8488 246.892 41.1454 246.26 43.7383C245.617 46.342 245.251 49.5891 245.151 53.4786C246.216 52.6585 247.669 51.8163 249.521 50.9741C251.374 50.121 252.871 49.6997 254.003 49.6997C254.857 49.6997 255.655 49.8327 256.398 50.0875C257.253 50.3979 258.129 50.8298 259.017 51.3838C259.915 51.9381 260.569 52.2151 260.991 52.2151C261.901 52.2151 262.744 51.8603 263.531 51.1621L264.862 52.9468C263.764 54.1987 262.544 55.3288 261.191 56.3372C260.47 56.869 259.904 57.2459 259.471 57.4673C259.05 57.689 258.462 57.7995 257.73 57.7995C256.765 57.7995 255.722 57.4229 254.613 56.6697C253.482 55.905 252.583 55.3732 251.906 55.0743C251.241 54.7636 250.498 54.6196 249.688 54.6196C248.168 54.6196 246.682 55.2626 245.217 56.5476C245.217 59.983 246.05 62.8416 247.713 65.1022C249.377 67.3741 251.629 68.5038 254.48 68.5038C256.987 68.5038 259.848 67.3515 263.054 65.0469L264.33 66.4428C261.158 69.8557 257.164 71.5626 252.35 71.5626C250.043 71.5626 247.669 71.1192 245.228 70.2439C242.799 69.3573 240.669 67.7394 238.851 65.3904C237.02 63.0299 236.022 59.8387 235.844 55.8166V53.5448C235.967 51.2951 236.554 48.924 237.575 46.4529C238.606 43.9706 240.181 41.8543 242.289 40.0924C244.407 38.3305 246.992 37.4552 250.076 37.4552C253.193 37.4552 256.521 38.5632 260.07 40.7907C261.102 41.533 261.923 41.9099 262.522 41.9099C263.099 41.9099 263.587 41.7325 263.986 41.389ZM310.63 39.2502H293.193V36.4578H296.055C296.055 32.0144 295.356 28.9341 293.969 27.2053C292.572 25.4881 290.874 24.6234 288.855 24.6234C287.491 24.6234 286.205 25.0559 285.006 25.9087C283.809 26.7734 282.821 28.2692 282.045 30.3855C281.268 32.5022 280.88 35.3502 280.88 38.9179C280.88 41.5442 281.068 44.0484 281.446 46.4311C281.823 48.8134 282.433 51.7607 283.265 55.2732C284.241 59.1408 284.729 62.3542 284.729 64.9139C284.729 65.2018 284.707 65.5235 284.652 65.867C284.596 66.2211 284.518 66.5646 284.43 66.9081C284.341 67.2516 284.263 67.518 284.208 67.7063C284.153 67.9168 284.108 68.1051 284.053 68.2494C284.008 68.3933 283.964 68.5264 283.931 68.6263C284.363 68.903 284.896 69.0357 285.539 69.0357C287.147 69.0357 288.778 68.2494 290.431 66.6758C292.095 65.1022 293.459 63.0412 294.524 60.5036C295.589 57.966 296.121 55.3619 296.121 52.6804C296.121 51.9603 296.099 51.4285 296.055 51.085H293.193V48.2922H310.63V51.085H307.902C307.768 53.8548 307.025 56.4368 305.661 58.8413C304.297 61.2349 302.499 63.34 300.281 65.1353C298.063 66.9415 295.633 68.3268 293.015 69.3021C290.387 70.277 287.824 70.7644 285.328 70.7644C283.442 70.7644 281.823 70.4987 280.469 69.9669V69.0357C280.469 67.8834 280.392 66.8753 280.226 66.0222C280.07 65.1687 279.627 64.0604 278.905 62.7198C278.185 61.3676 277.042 59.6614 275.489 57.6007C273.658 55.2626 272.272 53.2013 271.34 51.4172C270.409 49.6444 269.821 48.093 269.554 46.7852C269.299 45.4777 269.166 44.0262 269.166 42.4417C269.166 38.2753 270.087 34.6297 271.917 31.5044C273.758 28.3798 276.232 25.9865 279.349 24.3242C282.455 22.6623 285.849 21.8313 289.521 21.8313C295.744 21.8313 300.214 23.3711 302.932 26.4405C305.65 29.5215 307.303 32.8566 307.902 36.4578H310.63V39.2502Z" fill="#272727"/>
<path fill-rule="evenodd" clip-rule="evenodd" d="M68.0622 3.28849C67.2324 2.64449 62.4643 2.79772 61.33 7.29408C61.1631 7.9576 61.1879 8.54699 60.9616 9.21679C60.4803 10.6461 58.5463 12.7928 57.25 11.1369C56.4185 10.0746 57.8556 7.86957 55.424 6.04415C54.9423 5.6831 54.4842 5.62552 53.9597 5.27937C52.4054 4.25282 52.3961 2.8639 53.3827 1.48491C53.5967 1.18608 53.8127 1.14703 53.7789 0.765136C52.7456 0.210826 48.6113 2.36155 50.1093 7.1627C50.3289 7.86593 50.6854 8.37523 50.8987 9.10791C51.1247 9.88395 50.9832 10.791 50.7338 11.4721C50.4482 12.2485 50.0821 12.5714 49.4709 12.9464C48.8607 13.321 47.7503 13.5527 47.6085 12.58C47.4273 11.3348 48.5281 9.39715 47.2186 8.00161C45.2494 5.90185 42.9414 7.37814 40.8193 6.18744C40.2408 5.86313 39.7231 5.30452 39.6475 4.641C39.4262 2.68586 41.5626 1.81684 41.562 1.19535C39.4879 1.57195 36.5709 3.34971 35.653 5.21881C33.3042 9.99911 38.3333 13.5023 36.1913 17.2786C35.9717 17.6665 35.2889 18.4848 34.7701 17.7955C34.3444 17.2316 34.3858 15.7533 32.2478 15.253C30.1601 14.7645 29.5717 14.8827 28.7322 12.4516C28.5928 12.0492 28.6441 11.7501 28.5136 11.3976C28.2098 11.483 28.1919 11.6293 28.0339 11.9529C27.6158 12.8094 27.3899 13.5014 27.3945 14.4753C27.4008 15.9459 27.5317 16.9252 28.0992 18.0454C28.7611 19.3535 30.6702 20.487 30.4228 22.0741C30.337 22.6271 29.84 23.0653 29.2779 23.1358C28.336 23.2532 28.0415 22.09 26.4173 21.7779C24.147 21.3424 21.5528 22.7866 20.4814 19.2563C20.1193 18.0626 20.3337 16.5022 20.3241 15.3066C19.5525 15.6981 18.3082 18.331 18.1028 19.0213C17.0845 22.4497 18.3924 25.3977 20.3569 28.0031C20.8008 28.5905 21.2391 29.0766 21.6578 29.6879C22.7759 31.3204 22.1335 33.2642 19.8927 32.7453C19.1132 32.5643 18.609 31.9134 18.1681 31.4722C16.5621 29.8662 16.1049 29.8964 13.7207 29.9321C12.8494 29.9447 11.845 30.2614 10.9201 30.08C8.95493 29.6942 7.74444 27.4362 7.11468 25.6942C6.99708 25.3676 7.05704 25.3417 6.79897 25.2514C6.27191 25.7865 6.13874 28.9072 6.21824 29.9251C6.44484 32.8059 7.59636 35.3815 9.47106 37.2559C10.6782 38.4638 11.0768 38.5158 12.8511 39.2657C15.986 40.5907 15.7895 43.1088 13.7933 43.3163C11.305 43.5744 10.9453 42.7719 8.06181 45.6272C7.68349 46.0021 7.0312 46.4049 6.46736 46.6835C5.59478 47.115 5.24959 47.1111 4.11695 47.0522C4.34023 47.9758 6.12648 48.9372 6.94407 49.1791C8.51301 49.6427 9.92293 49.0556 11.476 49.3478C12.9594 49.6271 15.3894 52.1627 13.9201 53.4398C13.4852 53.8171 12.7007 53.7916 12.0686 54.0619C9.34982 55.2219 9.55521 58.0047 7.62618 59.3727C6.60385 60.0971 5.23435 60.4049 3.63328 60.2838C2.30519 60.1832 0.33673 58.9846 0.00909615 59.0157C-0.145942 59.8155 1.72677 62.3687 2.1306 62.7797C3.07971 63.7477 4.27662 64.6772 5.79719 65.0975C6.94308 65.4152 7.08487 65.4692 8.42323 65.4692C9.39189 65.4685 10.3473 65.49 11.2225 65.2693C13.0449 64.8089 14.3359 64.153 16.4117 64.8328C18.6932 65.5804 17.9594 67.7906 16.4773 68.0613C11.5743 68.9575 12.9773 72.9154 12.0368 75.5523C11.6247 76.7082 10.7958 77.3569 9.78644 77.8374C9.39255 78.0247 8.92545 78.0465 8.73231 78.3559C8.99568 78.7895 10.548 78.9543 10.987 78.9533C13.4404 78.945 15.2936 77.9813 16.7456 76.1645C19.5237 72.6878 24.4452 74.8087 20.6567 77.3397C17.8226 79.2329 17.4651 82.2729 18.0041 85.5256C18.5381 88.7452 18.8191 90.8771 16.091 92.9302C15.8286 93.1277 15.4728 93.3309 15.2595 93.5298C15.5553 93.8482 16.2258 93.7734 16.6306 93.7717C17.1574 93.7701 17.7401 93.7965 18.2585 93.7701C22.161 93.5725 23.939 91.3281 25.0799 87.9003C25.8607 85.5547 27.1974 83.4903 30.2223 83.5036C31.1979 83.5076 32.3187 83.394 32.8027 84.0605C33.4606 84.966 32.5529 85.7473 32.0606 85.9995C30.7348 86.6785 29.1424 87.6882 29.9265 89.7489C30.6537 91.6587 33.0627 92.9963 30.7139 96.5228C30.4247 96.9576 30.2972 97.0764 29.9692 97.4024C29.8261 97.545 29.7327 97.6516 29.5823 97.7836C29.2726 98.055 29.2686 97.9143 29.1877 98.2783C31.7439 98.9349 34.6035 97.7267 35.5417 96.215C35.9296 95.5895 36.3125 94.6206 36.4099 93.87C36.5507 92.7872 36.2357 91.1848 37.9891 89.8743C40.0305 88.3478 42.6045 89.2717 41.0565 90.7993C40.6917 91.159 40.3926 91.7074 40.4429 92.451C40.5986 94.7331 43.5387 95.0491 42.4455 97.6562C42.3358 97.9173 42.201 98.1072 42.254 98.3746C42.363 98.9247 44.5806 97.3296 44.9957 96.6955C46.2708 94.7463 43.8932 93.1698 46.5716 91.8692C46.9267 91.6968 47.903 91.3933 48.3515 91.3629C50.6841 91.2053 49.8393 92.811 49.6697 94.2602C49.2029 98.2605 52.3193 98.2512 53.1037 100.071C53.8935 101.904 52.3325 103.636 51.237 104.728C51.0283 104.935 50.8202 105.091 50.5877 105.272C50.326 105.476 50.101 105.524 50.0652 105.938C50.9504 106.227 53.653 105.432 54.4258 105.092C56.8982 104.002 59.1366 102.655 60.4399 100.254C61.2124 98.8307 61.3048 97.4858 61.0567 95.6292C60.8199 93.8535 61.2346 92.3345 62.2914 91.5988C63.0093 91.0994 63.6907 91.077 64.121 91.8096C64.5242 92.4957 64.0846 93.2111 64.3539 94.1195C64.7869 95.5816 65.8715 96.2024 66.8935 96.9761C68.6635 98.3157 67.2705 99.8532 67.4713 101.19C68.4184 101.372 70.9546 99.0127 70.9252 95.9449C70.9112 94.5037 70.0526 93.91 69.6709 92.7591C69.3277 91.7256 70.1013 90.2125 70.9136 89.7966C72.3126 89.0801 72.5517 91.0862 73.047 91.9377C74.0398 93.6456 77.5676 93.5602 78.2626 95.619C78.5787 96.5545 78.1854 97.4818 77.781 98.2777C77.6743 98.4875 77.5408 98.5752 77.5153 98.786C77.4646 99.204 77.4414 98.4236 77.5385 98.9836C77.6345 99.5405 80.1042 97.9828 81.1335 96.5079C82.3566 94.7543 82.7644 91.2811 81.4307 89.2016C80.4878 87.7309 78.8745 87.6296 78.8745 85.5305C78.8745 82.6782 80.2831 83.221 81.486 85.048C82.8876 87.1756 84.5437 88.4192 87.5023 88.4159C89.0269 88.4136 89.4277 88.1747 90.3208 88.1459C93.3332 88.0489 93.8433 89.4077 95.3748 91.7567C95.5428 92.0138 95.5275 92.0916 95.7945 92.1581C95.9764 91.7583 95.9469 90.2718 95.9479 89.7142C95.9502 88.8008 95.8661 88.0956 95.663 87.2752C95.2947 85.7817 94.7199 84.5139 93.9788 83.5003C91.3137 79.8524 88.9934 80.8062 87.6885 78.8547C86.7768 77.4912 86.4118 75.2925 88.0122 75.3726C89.2004 75.4325 90.0267 78.2163 94.0255 76.5961C94.7093 76.3184 95.5381 76.0911 96.3832 76.4117C97.0276 76.6553 97.5798 77.0355 98.0906 77.4267C98.4315 77.6871 99.1322 78.6495 99.5092 78.6535C99.6129 77.2262 98.6969 75.599 98.04 74.9166C97.0498 73.8877 96.5638 73.3682 94.8017 72.7834C93.3653 72.3065 92.1107 71.8204 91.5635 70.631C91.2709 69.996 91.0841 69.203 91.2358 68.3972C91.3796 67.6361 92.0223 67.1943 92.7484 67.647C94.1259 68.5071 93.6734 69.208 96.4803 69.2213C98.0681 69.2282 99.3528 68.1834 100.196 67.5491C102.658 65.6985 104.703 68.3608 105.683 70.3613C105.864 70.7329 105.875 71.1291 106.225 71.1747C106.741 70.0959 106.486 66.7763 106.125 65.6512C105.333 63.1818 103.416 61.8236 101.03 61.4308C99.369 61.1571 97.6086 61.2637 96.3574 59.9452C95.6846 59.2357 95.8452 58.2919 96.5615 57.7707C97.6242 56.999 99.5923 57.3815 101.291 56.3503C102.645 55.5296 103.428 54.4174 104.356 53.1708C105.262 51.9543 106.373 50.9866 107.848 50.4283C108.617 50.1368 109.609 50.0193 110.564 50.1321C111.44 50.2354 112.51 50.5481 113.372 50.5581C112.917 47.9222 107.374 44.5235 103.15 44.9464C101.454 45.1159 100.115 45.4263 98.2705 45.3826C97.3999 45.3618 96.9795 45.0351 96.523 44.5778C96.158 44.2121 95.5703 43.446 95.9393 42.6286C96.3014 41.8251 97.0799 42.2646 97.9074 41.9419C100.36 40.9859 99.7589 38.77 102.807 38.8603C104.667 38.9156 105.873 40.3131 106.576 40.457C106.518 39.229 105.378 37.0117 104.748 36.3598C103.788 35.3657 102.926 34.4255 101.021 34.1081C97.5967 33.5379 94.8577 35.956 93.7714 35.4623C92.8723 35.0533 93.0529 34.1071 93.6628 33.612C93.9268 33.3979 94.2839 33.2719 94.6467 33.1521C95.715 32.7976 96.5316 32.0937 97.1134 31.0824C99.271 27.329 96.1838 22.8224 101.026 20.0372L102.576 19.3856C102.681 19.3605 102.754 19.3678 102.865 19.3367L103.174 19.1725C103 18.925 103.187 19.0703 102.8 18.9124C99.7964 17.6893 95.0565 18.3508 92.5623 20.21C91.0513 21.3355 89.7517 22.7774 88.4249 24.1084C86.9206 25.6187 85.0856 24.6223 85.6647 23.0636C86.0384 22.0573 87.0829 21.5499 87.6229 19.6087C88.4103 16.7746 86.2676 14.2943 88.5916 11.9771C88.7218 11.847 88.8142 11.7732 88.9391 11.6435C89.1392 11.435 89.1484 11.4886 89.159 11.1276C87.3403 10.938 86.0278 11.8417 85.2943 12.7819C84.4797 13.826 84.0898 15.1901 83.3865 16.3444C82.6484 17.5553 81.6596 18.2585 79.7203 17.9736C78.9408 17.8594 78.2964 17.4424 78.5601 16.4797C78.692 15.9966 79.499 15.3271 79.8627 15.0399C82.1933 13.2019 81.6596 9.30085 79.8736 7.06541C79.4609 6.54882 79.014 6.13119 78.6224 5.57985C76.0891 2.01374 79.5652 0.980573 79.5225 0.0767994C78.2365 -0.204492 76.1136 0.342206 75.1235 0.822718C70.2003 3.21138 73.0805 8.65123 70.8195 12.1528C70.2122 13.0923 68.8302 14.3571 67.5468 13.9984C66.0623 13.5831 67.1161 11.3586 66.4668 9.87468C65.5724 7.82919 64.3562 6.62262 66.6182 4.46131C66.8236 4.26473 67.0876 4.06551 67.3351 3.90038C67.6654 3.67832 68.0271 3.65781 68.0622 3.28849ZM56.287 18.2684C75.0486 18.2684 90.2579 33.4611 90.2579 52.2031C90.2579 70.9447 75.0486 86.1385 56.287 86.1385C37.5257 86.1385 22.3167 70.9447 22.3167 52.2031C22.3167 33.4611 37.5257 18.2684 56.287 18.2684ZM78.5214 30.5552L71.4532 30.5632L69.1585 35.9484H43.3887L41.0902 30.5529H34.0555C39.6949 24.7749 47.571 21.1859 56.287 21.1859C65.0049 21.1859 72.8817 24.7762 78.5214 30.5552ZM33.8836 30.7286L38.9287 42.6792H73.6052L78.691 30.7293C84.0454 36.3022 87.3373 43.8686 87.3373 52.2031C87.3373 69.2987 73.4922 83.1627 56.3926 83.2196L63.6642 66.1863L71.0186 48.9606H56.3108H41.6024L48.9564 66.1863L56.2283 83.2203C39.1072 83.1879 25.2373 69.3142 25.2373 52.2031C25.2373 43.8683 28.5288 36.3015 33.8836 30.7286ZM56.3148 79.5662L68.7063 50.4359L44.0131 50.472L56.3148 79.5662ZM56.287 16.7299C75.8996 16.7299 91.798 32.6116 91.798 52.2031C91.798 71.7949 75.8996 87.677 56.287 87.677C36.6753 87.677 20.7766 71.7949 20.7766 52.2031C20.7766 32.6116 36.6753 16.7299 56.287 16.7299Z" fill="#272727"/>
<path d="M134.873 81.881V81.5412C134.873 79.2938 133.607 78.6501 131.276 78.6501C128.698 78.6501 127.139 79.083 127.139 81.9866V84.2571C127.139 87.4645 128.885 87.6286 131.276 87.6286C134.018 87.6286 134.873 86.9611 134.873 84.4914V84.2339H132.459V84.4914C132.459 85.5213 131.991 85.5918 131.018 85.5918C129.612 85.5918 129.553 85.0414 129.553 83.7306V82.3609C129.553 81.1083 129.682 80.6867 131.018 80.6867C131.815 80.6867 132.459 80.8389 132.459 81.5412V81.881H134.873ZM140.345 80.7691H142.712V78.7319H135.635V80.7691H138.002V87.5115H140.345V80.7691ZM146.053 85.0765H148.127C150.576 85.0765 151.127 84.3041 151.127 81.8344C151.127 79.5397 150.306 78.7319 148.127 78.7319H143.709V87.5115H146.053V85.0765ZM146.053 80.6519H147.658C148.572 80.6519 148.713 80.9561 148.713 81.8575C148.713 82.9933 148.549 83.1568 147.658 83.1568H146.053V80.6519ZM156.247 87.6286C158.626 87.6286 160.314 87.0667 160.314 84.3623V81.881C160.314 79.1767 158.626 78.6501 156.247 78.6501C153.869 78.6501 152.181 79.1767 152.181 81.881V84.3623C152.181 87.0667 153.869 87.6286 156.247 87.6286ZM156.247 85.5918C155.029 85.5918 154.595 85.4164 154.595 84.1052V82.1269C154.595 80.8158 155.029 80.6867 156.247 80.6867C157.466 80.6867 157.9 80.827 157.9 82.1269V84.1052C157.9 85.4164 157.466 85.5918 156.247 85.5918ZM163.829 78.7319H161.603V87.5115H164.79L167.427 81.7288H167.509V87.5115H169.735V78.7319H166.653L163.911 84.5146H163.829V78.7319ZM175.442 80.7691H177.809V78.7319H170.731V80.7691H173.098V87.5115H175.442V80.7691ZM181.149 80.6519H185.145V78.7319H178.805V87.5115H185.227V85.5918H181.149V83.8825H184.899V82.2553H181.149V80.6519ZM187.699 78.7319V84.4914C187.699 85.3578 187.477 85.6854 186.832 85.6854C186.516 85.6854 186.328 85.6735 186.117 85.6033V87.4996C186.48 87.5701 186.809 87.6051 187.312 87.6051C189.094 87.6051 189.926 86.3761 189.926 84.4563V80.7691H192.468V87.5115H194.812V78.7319H187.699ZM198.679 78.7319H196.335V87.5115H200.858C202.628 87.5115 203.566 86.7854 203.566 84.819C203.566 82.8523 202.652 82.1269 200.858 82.1269H198.679V78.7319ZM198.679 83.953H200.308C200.976 83.953 201.222 84.1165 201.222 84.8425C201.222 85.5213 200.976 85.6854 200.308 85.6854H198.679V83.953ZM207.198 78.7319H204.854V87.5115H207.198V84.0698H210.256V87.5115H212.6V78.7319H210.256V82.0333H207.198V78.7319ZM219.443 86.0014L219.901 87.5115H222.291L219.619 78.7319H216.057L213.42 87.5115H215.858L216.291 86.0014H219.443ZM218.963 84.3041H216.795L217.861 80.4878H217.885L218.963 84.3041ZM227.869 87.5115H230.212V78.7319H225.712C223.627 78.7319 222.877 79.6214 222.877 81.5064C222.877 82.9228 223.31 83.6601 224.447 84.1403L222.537 87.5115H225.22L226.767 84.4209H227.869V87.5115ZM227.869 82.5012H226.287C225.619 82.5012 225.22 82.2672 225.22 81.5882C225.22 80.8389 225.443 80.6519 226.111 80.6519H227.869V82.5012ZM238.298 78.7319H235.954V87.5115H238.298V84.0698H239.001L241.45 87.5115H244.356L241.005 83.0399L244.098 78.7319H241.262L239.001 82.0333H238.298V78.7319ZM248.95 87.6286C251.328 87.6286 253.016 87.0667 253.016 84.3623V81.881C253.016 79.1767 251.328 78.6501 248.95 78.6501C246.571 78.6501 244.884 79.1767 244.884 81.881V84.3623C244.884 87.0667 246.571 87.6286 248.95 87.6286ZM248.95 85.5918C247.731 85.5918 247.297 85.4164 247.297 84.1052V82.1269C247.297 80.8158 247.731 80.6867 248.95 80.6867C250.169 80.6867 250.602 80.827 250.602 82.1269V84.1052C250.602 85.4164 250.169 85.5918 248.95 85.5918ZM254.305 78.7319V87.5115H256.649L256.414 80.7804L256.519 80.7572L258.734 87.5115H260.761L262.964 80.7572L263.07 80.7804L262.836 87.5115H265.179V78.7319H261.371L259.778 84.2455H259.695L258.02 78.7319H254.305ZM266.703 78.7319V87.5115H269.047V80.7691H272.105V87.5115H274.449V78.7319H266.703ZM281.292 86.0014L281.749 87.5115H284.139L281.468 78.7319H277.905L275.269 87.5115H277.706L278.14 86.0014H281.292ZM280.811 84.3041H278.644L279.71 80.4878H279.733L280.811 84.3041ZM287.304 78.7319H284.96V87.5115H287.304V84.0698H290.362V87.5115H292.706V78.7319H290.362V82.0333H287.304V78.7319ZM296.455 78.7319H294.229V87.5115H297.416L300.053 81.7288H300.135V87.5115H302.361V78.7319H299.279L296.537 84.5146H296.455V78.7319ZM308.642 87.5115H310.986V78.7319H306.486C304.4 78.7319 303.65 79.6214 303.65 81.5064C303.65 82.9228 304.084 83.6601 305.22 84.1403L303.31 87.5115H305.994L307.541 84.4209H308.642V87.5115ZM308.642 82.5012H307.06C306.392 82.5012 305.994 82.2672 305.994 81.5882C305.994 80.8389 306.217 80.6519 306.885 80.6519H308.642V82.5012Z" fill="#272727"/>
</svg>
