<?xml version="1.0" encoding="utf-8"?><svg viewBox="0 0 311 106" xmlns="http://www.w3.org/2000/svg" xmlns:xlink="http://www.w3.org/1999/xlink"><style>:root>svg{display:none}:root>svg:target{display:block}</style><svg fill="none" viewBox="0 0 75 79" id="benefits__card-building" xmlns="http://www.w3.org/2000/svg"><path d="M41.879 8.865h-4.423c-.785 0-1.424.639-1.424 1.425v5.307c0 .785.639 1.424 1.424 1.424h4.423c.785 0 1.425-.639 1.425-1.425V10.29c0-.786-.64-1.425-1.425-1.425zm-.825 5.906h-2.772v-3.656h2.772v3.656zM50.673 8.865H46.25c-.785 0-1.425.639-1.425 1.425v5.307c0 .785.64 1.424 1.425 1.424h4.423c.785 0 1.424-.639 1.424-1.425V10.29c0-.786-.639-1.425-1.424-1.425zm-.826 5.906h-2.772v-3.656h2.772v3.656zM59.466 8.865h-4.423c-.785 0-1.424.639-1.424 1.425v5.307c0 .785.639 1.424 1.424 1.424h4.423c.785 0 1.425-.639 1.425-1.425V10.29c0-.786-.64-1.425-1.425-1.425zm-.825 5.906h-2.772v-3.656h2.772v3.656zM41.879 22.043h-4.423c-.785 0-1.424.64-1.424 1.425v5.307c0 .786.639 1.425 1.424 1.425h4.423c.785 0 1.425-.64 1.425-1.425v-5.307c0-.785-.64-1.425-1.425-1.425zm-.825 5.907h-2.772v-3.656h2.772v3.656zM50.673 22.043H46.25c-.785 0-1.425.64-1.425 1.425v5.307c0 .786.64 1.425 1.425 1.425h4.423c.785 0 1.424-.64 1.424-1.425v-5.307c0-.785-.639-1.425-1.424-1.425zm-.826 5.907h-2.772v-3.656h2.772v3.656zM59.466 22.043h-4.423c-.785 0-1.424.64-1.424 1.425v5.307c0 .786.639 1.425 1.424 1.425h4.423c.785 0 1.425-.64 1.425-1.425v-5.307c0-.785-.64-1.425-1.425-1.425zm-.825 5.907h-2.772v-3.656h2.772v3.656zM41.879 35.223h-4.423c-.785 0-1.424.639-1.424 1.424v5.308c0 .785.639 1.424 1.424 1.424h4.423c.785 0 1.425-.639 1.425-1.424v-5.308c0-.785-.64-1.424-1.425-1.424zm-.825 5.906h-2.772v-3.656h2.772v3.656zM50.673 35.223H46.25c-.785 0-1.425.639-1.425 1.424v5.308c0 .785.64 1.424 1.425 1.424h4.423c.785 0 1.424-.639 1.424-1.424v-5.308c0-.785-.639-1.424-1.424-1.424zm-.826 5.906h-2.772v-3.656h2.772v3.656zM59.466 35.223h-4.423c-.785 0-1.424.639-1.424 1.424v5.308c0 .785.639 1.424 1.424 1.424h4.423c.785 0 1.425-.639 1.425-1.424v-5.308c0-.785-.64-1.424-1.425-1.424zm-.825 5.906h-2.772v-3.656h2.772v3.656zM59.466 48.402h-4.423c-.785 0-1.424.639-1.424 1.424v5.307c0 .786.639 1.425 1.424 1.425h4.423c.785 0 1.425-.639 1.425-1.425v-5.307c0-.785-.64-1.424-1.425-1.424zm-.825 5.906h-2.772v-3.656h2.772v3.656z" fill="#fff"/><path d="M74.194 53.415a4.685 4.685 0 00-6.47-1.251l-3.094 2.07V5.839h.224c.815 0 1.477-.663 1.477-1.477V1.477C66.331.663 65.67 0 64.854 0H57.67a1.125 1.125 0 100 2.25h6.411v1.339H32.494v-1.34h18.131a1.125 1.125 0 100-2.249H31.721c-.814 0-1.477.663-1.477 1.477v2.885c0 .814.663 1.477 1.477 1.477h.571v14.45h-2.31v-2.777c0-.966-.786-1.753-1.753-1.753h-8.494c-.967 0-1.753.787-1.753 1.753v2.777h-1.617a1.824 1.824 0 00-1.822 1.822v25.8c-.476-.03-.954-.046-1.432-.046h-1.774v-.585A3.963 3.963 0 007.38 43.32h-3.42A3.963 3.963 0 000 47.28v16.065a1.125 1.125 0 102.25 0V47.28a1.71 1.71 0 011.708-1.709h3.42a1.71 1.71 0 011.71 1.709v25.313a1.71 1.71 0 01-1.71 1.708h-3.42a1.71 1.71 0 01-1.708-1.708v-2.208a1.125 1.125 0 10-2.25 0v2.208A3.963 3.963 0 003.96 76.55h3.42a3.963 3.963 0 003.959-3.958v-.064l15.578 5.899c.03.011.061.021.092.03.685.194 1.369.29 2.047.29a7.047 7.047 0 001.101-.086l22.994-3.314.017-.003a11.318 11.318 0 005.404-2.438L73.433 59.54a4.686 4.686 0 00.76-6.125zM34.541 5.839H62.38v49.9l-9.36 6.265-3.139-.176-.08-.804a6.873 6.873 0 00-1.009-2.96 6.828 6.828 0 00-1.28-1.506h3.16c.786 0 1.425-.64 1.425-1.425v-5.307c0-.785-.639-1.425-1.424-1.425H46.25c-.785 0-1.425.64-1.425 1.425v5.282a6.96 6.96 0 00-.903-.186l-.618-.071v-5.025c0-.786-.64-1.425-1.425-1.425h-4.423c-.785 0-1.424.64-1.424 1.425v4.188l-1.49-.172V5.84zm12.533 48.469v-3.656h2.772v3.656h-2.772zm-6.021-3.657v3.657h-2.47l-.302-.035v-3.622h2.772zM20.23 18.01h7.501v2.28h-7.5v-2.28zm-3.438 4.53h15.5v3.518H19.586a1.32 1.32 0 00-1.319 1.32v3.396c0 .727.592 1.32 1.32 1.32h12.704v3.164H19.587a1.32 1.32 0 00-1.319 1.32v3.396a1.32 1.32 0 001.32 1.319h12.704v3.165H19.587a1.32 1.32 0 00-1.319 1.319v2.686a23.644 23.644 0 00-1.168-.24l-.307-.054V22.539zm15.5 5.768v1.535H20.517v-1.535h11.774zm0 9.2v1.535H20.517v-1.535h11.774zM20.517 48.242v-1.535h11.774v1.535H20.518zm11.774 2.25v3.091l-.346-.04a20.49 20.49 0 01-2.148-.424 20.206 20.206 0 01-5.268-2.16 22.841 22.841 0 00-.723-.403l-.118-.064h8.603zm39.641 7.37L57.087 71.216a9.064 9.064 0 01-4.267 1.907l-22.994 3.314-.03.005a5.045 5.045 0 01-2.131-.136l-16.328-6.182V50.115h1.773a20.325 20.325 0 012.924.214l.07.01a20.68 20.68 0 011.6.302l.187.045c.164.04.326.08.489.124l.088.023a20.374 20.374 0 014.248 1.691l.136.073c.18.097.358.197.534.3l.008.005a22.492 22.492 0 008.28 2.875l1.615.186 1.315.152 3.034.349.752.087 5.259.605a4.582 4.582 0 013.913 4.091l.04.392-21.087-2.055a1.124 1.124 0 10-.219 2.24l22.355 2.178c.047.01.094.016.143.019l4.475.251.063.002c.023 0 .044-.004.067-.005l.076-.006c.032-.004.064-.011.096-.018.025-.005.05-.01.074-.017.034-.01.067-.023.1-.036l.062-.024c.052-.024.103-.052.151-.085l10.173-6.807 4.845-3.244a2.43 2.43 0 013.357.649 2.432 2.432 0 01-.4 3.182z" fill="#fff"/></svg><svg fill="none" viewBox="0 0 82 82" id="benefits__card-cask" xmlns="http://www.w3.org/2000/svg"><path d="M69.191 28.6a30.038 30.038 0 011.444 4.828 1.212 1.212 0 002.37-.496 32.541 32.541 0 00-1.558-5.218 1.212 1.212 0 00-2.254.887l-.002-.002z" fill="#fff"/><path d="M80.789 36.898h-3.052A36.84 36.84 0 0050.329 3.987 5.368 5.368 0 0045.152 0h-8.304a5.367 5.367 0 00-5.178 3.99A36.961 36.961 0 004.26 36.899H1.212A1.21 1.21 0 000 38.108v6.229a1.21 1.21 0 001.211 1.21h2.94v3.065A32.494 32.494 0 0032.87 80.755v.034A1.211 1.211 0 0034.08 82h13.84a1.211 1.211 0 001.21-1.211v-.034a32.494 32.494 0 0028.718-32.143v-3.064h2.941A1.211 1.211 0 0082 44.337v-6.228a1.21 1.21 0 00-1.211-1.211zm-5.478 0H50.515V6.548c2.61.748 5.12 1.805 7.48 3.147v13.998a4.33 4.33 0 004.325 4.325 4.33 4.33 0 004.325-4.325v-7.016a34.263 34.263 0 018.666 20.22zM60.417 11.21a34.607 34.607 0 013.806 3.019v9.463a1.906 1.906 0 01-1.903 1.903 1.907 1.907 0 01-1.903-1.902V11.212zm-23.569-8.79h2.941v20.933a1.211 1.211 0 102.422 0V2.422h2.94a2.944 2.944 0 012.942 2.94v31.536H33.907V5.363a2.944 2.944 0 012.941-2.941zM17.777 14.256a34.606 34.606 0 013.806-3.037v12.476a1.908 1.908 0 01-1.903 1.902 1.906 1.906 0 01-1.903-1.902v-9.44zM15.355 16.7v6.99a4.33 4.33 0 004.325 4.324 4.33 4.33 0 004.325-4.325V9.703a34.074 34.074 0 017.48-3.156v30.35H6.687a34.41 34.41 0 018.668-20.195V16.7zM6.574 48.612v-3.064h1.73v3.064a28.392 28.392 0 0024.565 27.956v1.752A30.065 30.065 0 016.574 48.612zm64.7-3.064v3.064A25.959 25.959 0 0149.056 74.14c0-.007-.008-.011-.01-.018a1.204 1.204 0 00-.153-.277c-.014-.02-.03-.036-.045-.055a1.216 1.216 0 00-.208-.198c-.01-.008-.02-.018-.032-.026a1.213 1.213 0 00-.284-.142c-.024-.009-.048-.016-.07-.023a1.184 1.184 0 00-.334-.05H34.08a1.183 1.183 0 00-.403.074c-.1.035-.196.083-.284.142-.011.009-.02.019-.032.027a1.216 1.216 0 00-.207.198l-.045.054a1.185 1.185 0 00-.153.277c0 .006-.007.012-.01.019a25.958 25.958 0 01-22.22-25.53v-3.064h60.548zM46.71 79.578H35.29v-3.806H46.71v3.806zm28.717-30.966a30.065 30.065 0 01-26.295 29.71v-1.754a28.392 28.392 0 0024.565-27.956v-3.064h1.73v3.064zm4.152-5.486H2.422V39.32h77.156v3.806z" fill="#fff"/></svg><svg fill="none" viewBox="0 0 79 82" id="benefits__card-crance" xmlns="http://www.w3.org/2000/svg"><path d="M58.549 61.765a.99.99 0 00.99-.99v-5.772a.99.99 0 00-1.98 0v5.773a.99.99 0 00.99.99zM51.952 61.765a.99.99 0 00.99-.99v-5.772a.99.99 0 10-1.98 0v5.773a.99.99 0 00.99.99zM65.146 61.765a.99.99 0 00.99-.99v-5.772a.99.99 0 00-1.98 0v5.773a.99.99 0 00.99.99zM71.743 61.765a.99.99 0 00.99-.99v-5.772a.99.99 0 10-1.98 0v5.773a.99.99 0 00.99.99zM55.625 11.215h-.962a.99.99 0 100 1.98h.962a.99.99 0 000-1.98zM51.708 11.215H30.676a.99.99 0 100 1.98h21.032a.99.99 0 000-1.98z" fill="#fff"/><path d="M78.995 49.791l-.008-.053-.006-.042-.015-.06-.01-.033c-.005-.018-.012-.035-.018-.053l-.014-.038-.02-.044-.022-.044-.02-.034-.03-.05-.02-.028-.037-.05-.03-.031c-.01-.011-.022-.027-.035-.04a1.11 1.11 0 00-.072-.066h-.002L63.523 36.787a4.466 4.466 0 002.717-2.576.99.99 0 00-1.836-.74 2.493 2.493 0 01-2.32 1.573 2.525 2.525 0 010-5.05.99.99 0 00.99-.99v-7.564h3.996a.99.99 0 00.99-.99v-3.916h2.078a.989.989 0 00.99-.993l-.029-6.797a.99.99 0 00-.84-.973L19.412.011A1.01 1.01 0 0019.264 0H8.22a.986.986 0 00-.723.316L.266 8.075A.985.985 0 000 8.749v6.797a.99.99 0 00.99.99h6.245L7.23 73.98a6.21 6.21 0 00-5.574 6.174.99.99 0 00.99.99H24.71a.99.99 0 00.99-.99 6.215 6.215 0 00-5.446-6.159l.01-57.46H55.91v3.916a.99.99 0 00.99.99h4.195v6.686a4.51 4.51 0 00-.77 8.535L45.058 49.124l-.002.001a.967.967 0 00-.071.065c-.014.013-.026.028-.04.042l-.026.03a.852.852 0 00-.038.05c-.006.01-.013.018-.02.027l-.03.05-.02.034-.02.044c-.008.015-.015.029-.021.044-.007.014-.01.025-.014.038l-.019.053-.009.034-.014.06-.007.043-.008.052a.967.967 0 00-.005.098v16a.99.99 0 00.99.989H78.01a.99.99 0 00.99-.99v-16a.954.954 0 00-.005-.097zM57.067 7.76H20.26l-.004-5.618L57.067 7.76zm-38.786 0h-6.947l6.944-4.869.003 4.869zM9.207 1.98h6.923L9.196 6.841l.011-4.863zM7.224 3.51l-.01 4.25h-3.95l3.96-4.25zm16.38 75.655H3.752a4.235 4.235 0 014.113-3.24h11.629a4.236 4.236 0 014.112 3.24zm-6.58-55.366l-7.81 3.595v-7.188l7.81 3.593zm-7.81-5.773v-1.49h9.071V22.2l-9.07-4.174zm9.07 7.373l-.002 7.495-8.144-3.746 8.146-3.75zm-1.31 9.07l-7.761 3.57V30.9l7.76 3.57zm1.308 1.577l-.001 7.172-7.793-3.586 7.794-3.586zm-1.334 8.737l-7.736 3.56v-7.12l7.736 3.56zm1.332 1.566l-.001 7.381-8.018-3.691 8.02-3.69zm-1.283 8.97L9.21 58.903v-7.168l7.786 3.584zm1.282 1.589l-.002 7.513-8.164-3.755 8.166-3.758zm-1.33 9.08L9.21 69.55v-7.121l7.74 3.56zm1.328 1.569l-.001 6.39H9.21v-2.218l9.067-4.172zM57.889 19.46v-2.925h1.98a.99.99 0 100-1.98H1.978V9.74h67.146l.02 4.817h-5.648a.99.99 0 000 1.98h2.584v2.925H57.89zm3.958 18.513L75.233 48.9H48.462l13.385-10.928zm15.174 26.925H46.674v-14.02h30.347V64.9z" fill="#fff"/></svg><svg fill="none" viewBox="0 0 38 22" id="burger-button" xmlns="http://www.w3.org/2000/svg"><path d="M1 1.833h36M1 11h36M1 20.167h36" stroke="#fff" stroke-width="2" stroke-linecap="round" stroke-linejoin="round"/></svg><svg viewBox="8 7 29 29" fill="none" id="close-button" xmlns="http://www.w3.org/2000/svg"><g filter="url(#efilter0_d)"><path d="M22.039 15.43l7.01-7.01 5.607 5.609-7.01 7.01 7.01 7.01-5.607 5.607-7.01-7.01-7.01 7.01-5.608-5.608 7.01-7.01-7.01-7.01 5.608-5.607 7.01 7.01z" fill="#FFA800"/><path d="M22.038 18.235l7.01-7.01 2.804 2.804-7.01 7.01 7.01 7.01-2.804 2.803-7.01-7.01-7.01 7.01-2.803-2.804 7.01-7.01-7.01-7.01 2.804-2.803 7.01 7.01z" fill="#fff"/></g><defs><filter id="efilter0_d" x=".611" y=".611" width="42.855" height="42.855" filterUnits="userSpaceOnUse" color-interpolation-filters="sRGB"><feFlood flood-opacity="0" result="BackgroundImageFix"/><feColorMatrix in="SourceAlpha" values="0 0 0 0 0 0 0 0 0 0 0 0 0 0 0 0 0 0 127 0"/><feOffset dy="1"/><feGaussianBlur stdDeviation=".9"/><feColorMatrix values="0 0 0 0 0 0 0 0 0 0 0 0 0 0 0 0 0 0 0.65 0"/><feBlend in2="BackgroundImageFix" result="effect1_dropShadow"/><feBlend in="SourceGraphic" in2="effect1_dropShadow" result="shape"/></filter></defs></svg><svg fill="none" viewBox="0 0 232 80" id="footer__logo-image" xmlns="http://www.w3.org/2000/svg"><path fill-rule="evenodd" clip-rule="evenodd" d="M99.124 49.617V33.902c0-3.943.365-7.175 1.101-9.713.728-2.53 2.069-4.48 4.013-5.852 1.953-1.365 4.701-2.05 8.234-2.05 1.622 0 3.07.214 4.361.644 1.283.422 2.375 1.017 3.261 1.77.894.751 1.572 1.611 2.027 2.57.455.967.687 1.967.687 3.009 0 2.447-.778 4.24-2.325 5.357-1.548 1.124-3.36 1.686-5.429 1.686-1.423 0-2.929-.529-4.51-1.595l-2.184 2.736c1.166.934 2.292 1.686 3.384 2.24 1.092.562 2.218.975 3.368 1.232a17.13 17.13 0 003.732.388h.447c1.034 0 1.804.116 2.309.356.505.24.836.595.985 1.075.149.487.223 1.165.223 2.041v7.887c0 .173-.008.363-.025.553-.016.2-.025.455-.025.786-.016.678-.082 1.19-.207 1.538-.115.347-.446.628-.976.834-.538.207-1.415.306-2.632.306h-23.94v-2.083h4.121zm7.696 0h6.099c.828 0 1.399-.207 1.713-.628.323-.422.48-1.315.48-2.687v-5.605c0-.744-.116-1.29-.339-1.628-.224-.34-.828-.769-1.804-1.306-1.738-.95-2.996-1.687-3.782-2.216-.778-.52-1.564-1.24-2.367-2.14v16.21zm0-17.955l2.872-3.918c1.018.595 1.787.893 2.292.893.703 0 1.399-.39 2.094-1.174.687-.786 1.034-2.1 1.034-3.96 0-1.76-.372-3.059-1.117-3.885-.745-.835-1.68-1.249-2.814-1.249-1.754 0-2.912.902-3.484 2.712-.579 1.81-.885 4.216-.935 7.217 0 .438.009.983.025 1.636.025.653.033 1.232.033 1.728zm42.005-.785l1.3 1.537c-1.788 1.157-3.327 1.736-4.626 1.736-1.382 0-2.814-.86-4.312-2.579-.562-.637-1.017-1.108-1.348-1.405a1.847 1.847 0 00-1.233-.438c-1.531 0-2.533.967-3.004 2.901-.48 1.943-.753 4.365-.828 7.267.795-.612 1.879-1.24 3.261-1.869 1.382-.636 2.499-.95 3.343-.95.637 0 1.233.099 1.787.289.637.231 1.291.554 1.953.967.67.413 1.159.62 1.473.62.679 0 1.308-.265 1.895-.785l.993 1.331a17.666 17.666 0 01-2.739 2.53c-.538.396-.96.677-1.283.842-.314.166-.753.248-1.299.248-.72 0-1.498-.28-2.325-.843-.844-.57-1.514-.967-2.019-1.19-.497-.232-1.051-.339-1.655-.339-1.134 0-2.243.48-3.335 1.438 0 2.563.62 4.696 1.862 6.382 1.241 1.695 2.921 2.538 5.048 2.538 1.87 0 4.005-.86 6.396-2.58l.952 1.042c-2.367 2.546-5.346 3.82-8.937 3.82-1.722 0-3.492-.331-5.313-.984-1.812-.661-3.401-1.868-4.758-3.62-1.366-1.762-2.11-4.142-2.243-7.143v-1.695c.092-1.678.53-3.447 1.291-5.29.77-1.852 1.945-3.431 3.517-4.746 1.581-1.314 3.509-1.967 5.809-1.967 2.326 0 4.808.827 7.456 2.488.77.554 1.382.835 1.829.835.431 0 .794-.132 1.092-.388zm12.463 1.628c-.199.703-.679 1.91-1.44 3.613-1.142 2.53-1.887 4.414-2.251 5.646a13.359 13.359 0 00-.538 3.703c0 1.257.282 2.497.853 3.712.19.38.414.752.662 1.116.248.355.372.628.372.81 0 .397-.314.595-.943.595H155.371c-.256 0-.654.017-1.175.05-.53.033-.91.05-1.159.05-.662 0-1.092-.1-1.291-.298-.198-.199-.297-.662-.297-1.389 0-1.885.455-3.745 1.357-5.572.902-1.826 2.251-4.133 4.054-6.919.497-.76.985-1.52 1.473-2.273.489-.752.911-1.505 1.267-2.248.356-.736.538-1.38.538-1.935 0-.397-.1-.893-.29-1.488v-.595c.124-.298.464-.446.993-.446h4.46c.654 0 1.076.082 1.258.247.19.166.281.513.281 1.05 0 1.844.712 4.985 2.144 9.416.943 2.968 1.713 5.208 2.3 6.72.58 1.513 1.06 2.663 1.424 3.456.364.794.546 1.29.546 1.488 0 .29-.099.471-.298.562-.199.083-.563.124-1.101.124a31.774 31.774 0 00-2.035-.05c-.853 0-1.515.017-1.986.05-.406 0-.729-.09-.985-.264-.248-.174-.505-.546-.778-1.125-.273-.587-.571-1.405-.894-2.463-.323-1.058-.827-2.852-1.514-5.373a47.686 47.686 0 00-.372-1.422 15.712 15.712 0 01-.265-1.066 65.436 65.436 0 01-1.043-4.117 43.934 43.934 0 00-.356-1.728 22.188 22.188 0 01-.339-1.637zm35.65-1.628l1.299 1.537c-1.788 1.157-3.327 1.736-4.626 1.736-1.382 0-2.813-.86-4.311-2.579-.563-.637-1.018-1.108-1.349-1.405a1.847 1.847 0 00-1.233-.438c-1.531 0-2.532.967-3.004 2.901-.48 1.943-.753 4.365-.828 7.267.795-.612 1.879-1.24 3.261-1.869 1.382-.636 2.499-.95 3.343-.95.637 0 1.233.099 1.787.289.638.231 1.291.554 1.953.967.671.413 1.159.62 1.474.62.678 0 1.307-.265 1.894-.785l.993 1.331a17.704 17.704 0 01-2.738 2.53c-.538.396-.961.677-1.284.842-.314.166-.752.248-1.298.248-.72 0-1.498-.28-2.326-.843-.844-.57-1.514-.967-2.019-1.19-.496-.232-1.051-.339-1.655-.339-1.134 0-2.243.48-3.335 1.438 0 2.563.621 4.696 1.862 6.382 1.241 1.695 2.921 2.538 5.048 2.538 1.87 0 4.005-.86 6.397-2.58l.951 1.042c-2.366 2.546-5.346 3.82-8.937 3.82-1.721 0-3.492-.331-5.313-.984-1.812-.661-3.401-1.868-4.758-3.62-1.365-1.762-2.11-4.142-2.243-7.143v-1.695c.092-1.678.53-3.447 1.291-5.29.77-1.852 1.945-3.431 3.517-4.746 1.581-1.314 3.509-1.967 5.81-1.967 2.325 0 4.808.827 7.456 2.488.769.554 1.382.835 1.828.835a1.62 1.62 0 001.093-.388zm34.797-1.596h-13.009v-2.083h2.135c0-3.315-.521-5.613-1.555-6.902-1.043-1.282-2.309-1.927-3.815-1.927-1.018 0-1.978.323-2.872.96-.893.644-1.63 1.76-2.209 3.339-.579 1.579-.869 3.704-.869 6.365 0 1.96.14 3.828.422 5.605.281 1.778.736 3.976 1.357 6.597.728 2.885 1.092 5.282 1.092 7.192 0 .214-.016.454-.058.71-.041.265-.099.521-.165.777-.066.257-.124.455-.165.596-.042.157-.075.297-.116.405-.033.107-.067.207-.091.281.322.207.72.306 1.199.306 1.2 0 2.417-.587 3.65-1.76 1.241-1.175 2.259-2.712 3.053-4.605a14.926 14.926 0 001.192-5.837c0-.537-.017-.934-.05-1.19h-2.135v-2.083h13.009v2.083h-2.036a12.794 12.794 0 01-1.671 5.786 16.572 16.572 0 01-4.014 4.696 19.098 19.098 0 01-5.42 3.108c-1.961.728-3.873 1.091-5.735 1.091-1.407 0-2.615-.198-3.624-.595v-.694c0-.86-.058-1.612-.182-2.248-.116-.637-.447-1.464-.985-2.464-.538-1.009-1.391-2.282-2.549-3.82-1.366-1.743-2.4-3.281-3.095-4.612-.695-1.323-1.133-2.48-1.332-3.456-.19-.975-.29-2.058-.29-3.24 0-3.108.687-5.828 2.052-8.16 1.374-2.33 3.219-4.116 5.545-5.356 2.317-1.24 4.849-1.86 7.588-1.86 4.643 0 7.978 1.15 10.005 3.439 2.027 2.298 3.261 4.786 3.707 7.473h2.036v2.083zM50.776 2.453c-.62-.48-4.177-.366-5.023 2.988-.124.495-.106.935-.275 1.435-.359 1.066-1.802 2.668-2.769 1.432-.62-.792.452-2.437-1.362-3.799-.36-.27-.701-.312-1.092-.57-1.16-.766-1.167-1.802-.43-2.831.159-.223.32-.252.295-.537-.771-.414-3.855 1.19-2.738 4.772.164.525.43.905.59 1.452.168.579.062 1.255-.124 1.763-.213.58-.486.82-.942 1.1-.455.28-1.284.453-1.39-.273-.134-.93.687-2.375-.29-3.416-1.47-1.566-3.191-.465-4.774-1.353-.432-.242-.818-.659-.874-1.154-.165-1.458 1.428-2.107 1.428-2.57-1.547.28-3.724 1.607-4.408 3.001-1.752 3.566 2 6.18.401 8.997-.164.29-.673.9-1.06.386-.317-.421-.287-1.524-1.882-1.897-1.557-.364-1.996-.276-2.622-2.09-.104-.3-.066-.523-.163-.786-.227.063-.24.173-.358.414-.312.639-.48 1.155-.477 1.882.004 1.097.102 1.827.525 2.663.494.976 1.919 1.822 1.734 3.006-.064.412-.435.739-.854.792-.703.087-.923-.78-2.134-1.013-1.694-.325-3.63.752-4.428-1.881-.27-.891-.11-2.055-.118-2.947-.576.292-1.504 2.256-1.657 2.771-.76 2.558.216 4.757 1.681 6.7.332.439.659.802.971 1.258.834 1.218.355 2.668-1.317 2.28-.581-.134-.957-.62-1.286-.95-1.198-1.197-1.54-1.175-3.318-1.148-.65.01-1.4.245-2.09.11-1.465-.288-2.369-1.972-2.838-3.272-.088-.243-.043-.263-.236-.33-.393.4-.492 2.727-.433 3.487.169 2.149 1.028 4.07 2.427 5.469.9.9 1.197.94 2.521 1.499 2.339.988 2.192 2.867.703 3.022-1.856.192-2.125-.406-4.276 1.724-.282.28-.769.58-1.19.788-.65.322-.908.319-1.753.275.167.689 1.5 1.406 2.11 1.586 1.17.346 2.222-.092 3.38.126 1.107.209 2.92 2.1 1.824 3.053-.325.281-.91.262-1.382.464-2.028.865-1.875 2.941-3.314 3.962-.762.54-1.784.77-2.979.68-.99-.075-2.459-.97-2.703-.946-.116.596 1.281 2.501 1.582 2.808.709.722 1.601 1.415 2.736 1.729.855.237.96.277 1.959.277.722 0 1.435.015 2.088-.15 1.36-.343 2.323-.832 3.871-.325 1.702.558 1.155 2.207.05 2.409-3.658.668-2.612 3.621-3.313 5.588-.308.862-.926 1.346-1.68 1.705-.293.14-.641.156-.786.387.197.323 1.355.446 1.682.445 1.83-.006 3.213-.725 4.296-2.08 2.073-2.594 5.744-1.012 2.918.877-2.114 1.412-2.38 3.68-1.979 6.106.399 2.402.608 3.993-1.427 5.524-.196.148-.461.3-.62.448.22.237.72.181 1.023.18.393-.001.827.019 1.214-.001 2.911-.147 4.238-1.822 5.089-4.379.582-1.75 1.58-3.29 3.836-3.28.728.003 1.564-.082 1.925.415.491.676-.186 1.259-.553 1.447-.99.507-2.177 1.26-1.592 2.797.542 1.425 2.34 2.423.587 5.053-.216.325-.31.413-.555.657-.107.106-.177.186-.29.284-.23.203-.233.098-.294.37 1.907.489 4.04-.412 4.74-1.54.29-.467.576-1.19.648-1.75.105-.807-.13-2.003 1.178-2.98 1.523-1.14 3.444-.45 2.289.69a1.539 1.539 0 00-.458 1.232c.116 1.702 2.31 1.938 1.494 3.883-.082.195-.182.337-.143.536.082.41 1.736-.78 2.046-1.253.95-1.454-.823-2.63 1.175-3.6.265-.129.993-.355 1.328-.378 1.74-.117 1.11 1.08.983 2.162-.348 2.984 1.977 2.977 2.562 4.335.59 1.367-.575 2.659-1.392 3.473-.156.155-.311.271-.485.407-.195.152-.363.188-.39.496.66.216 2.677-.377 3.254-.631 1.844-.813 3.514-1.818 4.486-3.609.576-1.062.645-2.065.46-3.45-.176-1.325.133-2.458.921-3.007.536-.372 1.044-.39 1.365.157.301.512-.027 1.046.174 1.724.323 1.09 1.132 1.553 1.895 2.13 1.32 1 .28 2.147.43 3.144.707.136 2.6-1.624 2.577-3.913-.01-1.075-.65-1.518-.935-2.376-.256-.771.32-1.9.927-2.21 1.043-.535 1.222.962 1.591 1.597.74 1.274 3.373 1.21 3.891 2.746.236.698-.057 1.39-.36 1.984-.079.156-.178.222-.197.379-.038.312-.056-.27.017.147.072.416 1.914-.746 2.682-1.847.912-1.308 1.216-3.899.221-5.45-.703-1.097-1.906-1.173-1.906-2.739 0-2.128 1.05-1.723 1.948-.36 1.045 1.587 2.28 2.515 4.488 2.513 1.137-.002 1.436-.18 2.103-.202 2.247-.072 2.628.942 3.77 2.694.125.192.114.25.313.3.136-.299.114-1.408.115-1.824a7.005 7.005 0 00-.213-1.82c-.275-1.114-.704-2.06-1.256-2.816-1.989-2.72-3.72-2.01-4.693-3.465-.68-1.017-.953-2.658.241-2.598.887.045 1.503 2.122 4.486.913.51-.207 1.129-.377 1.76-.138.48.182.892.466 1.273.758.254.194.777.912 1.058.915.078-1.065-.606-2.279-1.096-2.788-.738-.768-1.1-1.155-2.415-1.592-1.072-.355-2.008-.718-2.416-1.605-.219-.474-.358-1.066-.245-1.667.108-.567.587-.897 1.129-.56 1.027.642.69 1.165 2.784 1.175 1.184.005 2.143-.774 2.772-1.247 1.836-1.38 3.362.605 4.093 2.098.135.277.143.572.404.606.385-.804.195-3.28-.074-4.12-.59-1.842-2.021-2.856-3.8-3.149-1.24-.204-2.553-.124-3.487-1.108-.502-.53-.382-1.233.152-1.622.793-.576 2.261-.29 3.529-1.06 1.01-.612 1.594-1.442 2.286-2.372.676-.907 1.505-1.63 2.605-2.046.574-.217 1.314-.305 2.026-.22.654.076 1.452.31 2.095.317-.34-1.966-4.475-4.502-7.626-4.186-1.265.126-2.264.358-3.64.325-.65-.015-.963-.26-1.303-.6-.273-.273-.711-.845-.436-1.454.27-.6.851-.272 1.468-.513 1.83-.713 1.382-2.366 3.655-2.299 1.389.042 2.288 1.084 2.813 1.192-.044-.917-.894-2.57-1.364-3.057-.717-.742-1.36-1.443-2.78-1.68-2.555-.425-4.599 1.379-5.41 1.01-.67-.305-.535-1.01-.08-1.38.197-.16.463-.254.734-.343.797-.264 1.406-.79 1.84-1.544 1.61-2.8-.693-6.162 2.919-8.24l1.156-.486c.079-.019.133-.013.216-.037l.23-.122c-.13-.185.01-.076-.279-.194-2.24-.912-5.776-.419-7.637.968-1.127.84-2.097 1.915-3.087 2.908-1.122 1.127-2.49.384-2.059-.78.279-.75 1.058-1.128 1.461-2.577.588-2.114-1.011-3.964.723-5.693.097-.097.166-.152.259-.249.15-.155.156-.115.164-.385-1.357-.141-2.336.533-2.883 1.235-.608.778-.899 1.796-1.423 2.657-.551.904-1.289 1.428-2.736 1.216-.581-.086-1.062-.397-.865-1.115.098-.36.7-.86.972-1.074 1.738-1.371 1.34-4.281.008-5.95-.308-.384-.641-.696-.934-1.107-1.89-2.66.704-3.431.672-4.106-.96-.21-2.543.198-3.282.557-3.672 1.782-1.524 5.84-3.21 8.452-.454.701-1.485 1.645-2.442 1.377-1.108-.31-.321-1.97-.806-3.076-.667-1.526-1.574-2.426.113-4.039.153-.146.35-.295.535-.418.246-.166.516-.181.543-.457zM41.99 13.63c13.996 0 25.343 11.333 25.343 25.315 0 13.982-11.347 25.317-25.343 25.317S16.649 52.926 16.649 38.944 27.995 13.628 41.99 13.628zm16.587 9.166l-5.273.006-1.712 4.017H32.37l-1.715-4.025h-5.248a23.104 23.104 0 0116.585-6.988c6.504 0 12.38 2.678 16.587 6.99zm-33.3.129l3.763 8.915h25.87l3.794-8.915a23.048 23.048 0 016.45 16.02c0 12.754-10.329 23.097-23.085 23.14l5.425-12.708 5.486-12.85H31.036l5.486 12.85 5.425 12.708c-12.772-.025-23.12-10.375-23.12-23.14a23.048 23.048 0 016.45-16.02zm16.734 36.434l9.244-21.732-18.422.027 9.178 21.705zM41.99 12.48c14.631 0 26.492 11.848 26.492 26.463 0 14.616-11.86 26.464-26.492 26.464-14.63 0-26.491-11.848-26.491-26.464 0-14.615 11.86-26.463 26.49-26.463z" fill="#fff"/><path d="M100.617 61.085v-.254c0-1.677-.944-2.157-2.683-2.157-1.924 0-3.086.323-3.086 2.49v1.693c0 2.393 1.302 2.515 3.086 2.515 2.045 0 2.683-.498 2.683-2.34v-.192h-1.8v.192c0 .768-.35.82-1.076.82-1.049 0-1.092-.41-1.092-1.388v-1.021c0-.935.096-1.25 1.092-1.25.595 0 1.076.114 1.076.638v.254h1.8zm4.083-.83h1.766v-1.52h-5.28v1.52h1.765v5.03h1.749v-5.03zm4.258 3.213h1.547c1.827 0 2.238-.576 2.238-2.418 0-1.712-.612-2.315-2.238-2.315h-3.296v6.55h1.749v-1.816zm0-3.3h1.197c.682 0 .787.227.787.9 0 .846-.123.968-.787.968h-1.197v-1.868zm7.605 5.204c1.775 0 3.034-.419 3.034-2.436v-1.851c0-2.018-1.259-2.41-3.034-2.41s-3.033.392-3.033 2.41v1.85c0 2.018 1.258 2.437 3.033 2.437zm0-1.52c-.909 0-1.232-.13-1.232-1.108v-1.476c0-.978.323-1.074 1.232-1.074s1.232.104 1.232 1.074v1.476c0 .978-.323 1.109-1.232 1.109zm5.656-5.117h-1.661v6.55h2.378l1.967-4.314h.061v4.314h1.661v-6.55h-2.299l-2.046 4.314h-.061v-4.314zm8.663 1.52h1.766v-1.52h-5.28v1.52h1.766v5.03h1.748v-5.03zm4.258-.087h2.981v-1.433h-4.73v6.55h4.791v-1.432h-3.042v-1.275h2.797v-1.214h-2.797v-1.196zm4.886-1.433v4.297c0 .646-.166.89-.646.89-.236 0-.376-.008-.534-.06v1.414c.271.053.516.079.892.079 1.329 0 1.949-.917 1.949-2.35v-2.75h1.897v5.03h1.749v-6.55h-5.307zm8.192 0h-1.749v6.55h3.374c1.32 0 2.02-.542 2.02-2.009 0-1.467-.682-2.008-2.02-2.008h-1.625v-2.533zm0 3.895h1.215c.498 0 .682.122.682.664 0 .506-.184.629-.682.629h-1.215V62.63zm6.355-3.895h-1.749v6.55h1.749v-2.567h2.282v2.567h1.748v-6.55h-1.748v2.463h-2.282v-2.463zm9.135 5.424l.341 1.126h1.783l-1.993-6.55h-2.657l-1.967 6.55h1.818l.323-1.126h2.352zm-.358-1.267h-1.618l.796-2.847h.017l.805 2.847zm6.644 2.393h1.748v-6.55h-3.357c-1.556 0-2.116.664-2.116 2.07 0 1.057.324 1.607 1.172 1.965l-1.425 2.515h2.002l1.154-2.306h.822v2.306zm0-3.738h-1.181c-.498 0-.795-.174-.795-.68 0-.56.166-.7.664-.7h1.312v1.38zm7.78-2.812h-1.749v6.55h1.749v-2.567h.524l1.827 2.567h2.168l-2.5-3.336 2.308-3.214h-2.116l-1.687 2.463h-.524v-2.463zm7.946 6.637c1.775 0 3.034-.419 3.034-2.436v-1.851c0-2.018-1.259-2.41-3.034-2.41-1.774 0-3.033.392-3.033 2.41v1.85c0 2.018 1.259 2.437 3.033 2.437zm0-1.52c-.909 0-1.232-.13-1.232-1.108v-1.476c0-.978.323-1.074 1.232-1.074.91 0 1.233.104 1.233 1.074v1.476c0 .978-.323 1.109-1.233 1.109zm3.995-5.117v6.55h1.749l-.175-5.021.078-.018 1.653 5.039h1.512l1.643-5.039.079.017-.175 5.022h1.749v-6.55h-2.841l-1.189 4.114h-.062l-1.25-4.114h-2.771zm9.249 0v6.55h1.749v-5.03h2.282v5.03h1.748v-6.55h-5.779zm10.884 5.424l.341 1.126h1.783l-1.993-6.55h-2.657l-1.967 6.55h1.818l.323-1.126h2.352zm-.358-1.267h-1.618l.796-2.847h.017l.805 2.847zm4.843-4.157h-1.749v6.55h1.749v-2.567h2.281v2.567h1.749v-6.55h-1.749v2.463h-2.281v-2.463zm6.827 0h-1.661v6.55h2.378l1.967-4.314h.061v4.314h1.661v-6.55h-2.299l-2.046 4.314h-.061v-4.314zm9.092 6.55H232v-6.55h-3.357c-1.556 0-2.115.664-2.115 2.07 0 1.057.323 1.607 1.171 1.965l-1.425 2.515h2.002l1.154-2.306h.822v2.306zm0-3.738h-1.181c-.498 0-.795-.174-.795-.68 0-.56.166-.7.665-.7h1.311v1.38z" fill="#fff"/></svg><svg fill="none" viewBox="0 0 311 106" id="header__logo-image" xmlns="http://www.w3.org/2000/svg"><path fill-rule="evenodd" clip-rule="evenodd" d="M132.871 66.51V45.444c0-5.286.489-9.619 1.476-13.02.976-3.391 2.773-6.006 5.38-7.846 2.618-1.828 6.3-2.748 11.037-2.748 2.174 0 4.115.288 5.846.864 1.719.566 3.183 1.363 4.37 2.372 1.198 1.008 2.108 2.16 2.718 3.446.61 1.296.92 2.637.92 4.033 0 3.28-1.042 5.685-3.116 7.181-2.075 1.507-4.504 2.26-7.277 2.26-1.908 0-3.927-.709-6.046-2.138l-2.928 3.668c1.564 1.252 3.073 2.26 4.537 3.002a18.784 18.784 0 004.514 1.651c1.542.344 3.206.521 5.003.521h.599c1.387 0 2.418.155 3.095.477.677.321 1.121.798 1.32 1.44.2.654.299 1.563.299 2.738v10.57c0 .234-.011.488-.033.743-.022.266-.033.61-.033 1.053-.022.909-.111 1.596-.277 2.06-.155.466-.599.843-1.309 1.12-.721.277-1.897.41-3.528.41h-32.09V66.51h5.523zm10.317 0h8.175c1.109 0 1.874-.278 2.296-.843.433-.565.643-1.762.643-3.601v-7.513c0-.997-.155-1.729-.454-2.183-.3-.454-1.11-1.03-2.418-1.75-2.33-1.275-4.016-2.261-5.07-2.97-1.042-.698-2.096-1.662-3.172-2.87v21.73zm0-24.068l3.849-5.252c1.364.797 2.396 1.196 3.072 1.196.943 0 1.875-.52 2.807-1.573.921-1.053 1.386-2.815 1.386-5.309 0-2.36-.499-4.1-1.497-5.207-.998-1.12-2.252-1.674-3.772-1.674-2.351 0-3.904 1.209-4.67 3.635-.776 2.427-1.187 5.652-1.253 9.674 0 .587.011 1.318.033 2.194.033.875.045 1.65.045 2.316zm56.305-1.053l1.742 2.061c-2.396 1.551-4.459 2.327-6.2 2.327-1.853 0-3.772-1.153-5.78-3.457-.754-.854-1.364-1.485-1.808-1.884-.455-.388-1.009-.587-1.652-.587-2.053 0-3.395 1.296-4.027 3.89-.643 2.603-1.01 5.85-1.11 9.74 1.065-.82 2.519-1.663 4.371-2.505 1.853-.853 3.35-1.274 4.481-1.274.855 0 1.653.133 2.396.387.855.31 1.731.743 2.618 1.297.899.554 1.553.831 1.975.831.909 0 1.752-.355 2.54-1.053l1.331 1.785a23.72 23.72 0 01-3.671 3.39c-.721.532-1.287.909-1.72 1.13-.421.222-1.009.333-1.741.333-.965 0-2.008-.377-3.118-1.13-1.131-.765-2.029-1.297-2.706-1.596-.666-.31-1.409-.454-2.219-.454-1.519 0-3.006.643-4.47 1.928 0 3.435.832 6.294 2.496 8.554 1.664 2.272 3.916 3.402 6.766 3.402 2.508 0 5.369-1.153 8.575-3.457l1.275 1.396c-3.172 3.413-7.165 5.12-11.979 5.12-2.308 0-4.681-.444-7.122-1.32-2.429-.886-4.559-2.504-6.378-4.853-1.83-2.36-2.828-5.551-3.006-9.573v-2.272c.122-2.25.71-4.621 1.73-7.092 1.032-2.482 2.607-4.599 4.715-6.36 2.118-1.763 4.703-2.638 7.786-2.638 3.118 0 6.446 1.108 9.995 3.336 1.032.742 1.853 1.119 2.452 1.119.577 0 1.064-.177 1.463-.521zm16.706 2.183c-.266.942-.91 2.56-1.93 4.842-1.531 3.391-2.529 5.917-3.017 7.569a17.915 17.915 0 00-.721 4.964c0 1.684.377 3.346 1.142 4.975.255.51.555 1.009.888 1.496.332.477.499.842.499 1.086 0 .532-.421.798-1.265.798h-3.527c-.344 0-.877.022-1.576.067-.709.044-1.22.066-1.552.066-.888 0-1.464-.133-1.731-.4-.266-.265-.399-.886-.399-1.86 0-2.527.61-5.02 1.819-7.469 1.209-2.449 3.018-5.54 5.435-9.275.666-1.02 1.32-2.039 1.975-3.047a26.861 26.861 0 001.697-3.014c.477-.986.721-1.85.721-2.593 0-.532-.133-1.197-.388-1.995v-.797c.166-.4.621-.599 1.331-.599h5.979c.876 0 1.442.11 1.686.332.255.222.377.687.377 1.408 0 2.47.954 6.682 2.873 12.62 1.265 3.979 2.296 6.982 3.084 9.01.777 2.027 1.42 3.568 1.908 4.632.488 1.063.732 1.728.732 1.994 0 .388-.133.632-.399.754-.267.11-.755.166-1.476.166a42.565 42.565 0 00-2.728-.067c-1.143 0-2.03.022-2.663.067-.543 0-.976-.122-1.32-.355-.332-.232-.676-.73-1.043-1.507-.365-.786-.765-1.883-1.197-3.302-.433-1.418-1.11-3.823-2.031-7.203a58.55 58.55 0 00-.499-1.905 21.95 21.95 0 01-.354-1.43 87.502 87.502 0 01-1.398-5.518 60.655 60.655 0 00-.477-2.316c-.222-.942-.377-1.673-.455-2.194zm47.787-2.183l1.742 2.061c-2.397 1.551-4.46 2.327-6.201 2.327-1.852 0-3.772-1.153-5.779-3.457-.755-.854-1.365-1.485-1.808-1.884-.455-.388-1.01-.587-1.653-.587-2.052 0-3.395 1.296-4.027 3.89-.643 2.603-1.009 5.85-1.109 9.74 1.065-.82 2.518-1.663 4.37-2.505 1.853-.853 3.35-1.274 4.482-1.274.854 0 1.652.133 2.395.387.855.31 1.731.743 2.619 1.297.898.554 1.552.831 1.974.831.91 0 1.753-.355 2.54-1.053l1.331 1.785a23.72 23.72 0 01-3.671 3.39c-.721.532-1.287.909-1.72 1.13-.421.222-1.009.333-1.741.333-.965 0-2.008-.377-3.117-1.13-1.131-.765-2.03-1.297-2.707-1.596-.665-.31-1.408-.454-2.218-.454-1.52 0-3.006.643-4.471 1.928 0 3.435.833 6.294 2.496 8.554 1.664 2.272 3.916 3.402 6.767 3.402 2.507 0 5.368-1.153 8.574-3.457l1.276 1.396c-3.172 3.413-7.166 5.12-11.98 5.12-2.307 0-4.681-.444-7.122-1.32-2.429-.886-4.559-2.504-6.377-4.853-1.831-2.36-2.829-5.551-3.007-9.573v-2.272c.123-2.25.71-4.621 1.731-7.092 1.031-2.482 2.606-4.599 4.714-6.36 2.118-1.763 4.703-2.638 7.787-2.638 3.117 0 6.445 1.108 9.994 3.336 1.032.742 1.853 1.119 2.452 1.119.577 0 1.065-.177 1.464-.521zm46.644-2.139h-17.437v-2.792h2.862c0-4.444-.699-7.524-2.086-9.253-1.397-1.717-3.095-2.582-5.114-2.582-1.364 0-2.65.433-3.849 1.286-1.197.864-2.185 2.36-2.961 4.477-.777 2.116-1.165 4.964-1.165 8.532 0 2.626.188 5.13.566 7.513.377 2.382.987 5.33 1.819 8.842.976 3.868 1.464 7.081 1.464 9.64 0 .289-.022.61-.077.954a11.28 11.28 0 01-.222 1.041c-.089.344-.167.61-.222.798-.055.21-.1.4-.155.543-.045.144-.089.277-.122.377.432.277.965.41 1.608.41 1.608 0 3.239-.787 4.892-2.36 1.664-1.574 3.028-3.635 4.093-6.172 1.065-2.538 1.597-5.142 1.597-7.824 0-.72-.022-1.252-.066-1.595h-2.862v-2.793h17.437v2.793h-2.728a17.175 17.175 0 01-2.241 7.756c-1.364 2.394-3.162 4.499-5.38 6.294a25.597 25.597 0 01-7.266 4.167c-2.628.975-5.191 1.462-7.687 1.462-1.886 0-3.505-.265-4.859-.797v-.931c0-1.153-.077-2.16-.243-3.014-.156-.853-.599-1.962-1.321-3.302-.72-1.352-1.863-3.059-3.416-5.12-1.831-2.337-3.217-4.399-4.149-6.183-.931-1.773-1.519-3.324-1.786-4.632-.255-1.307-.388-2.759-.388-4.343 0-4.167.921-7.812 2.751-10.938 1.841-3.124 4.315-5.518 7.432-7.18 3.106-1.662 6.5-2.493 10.172-2.493 6.223 0 10.693 1.54 13.411 4.61 2.718 3.08 4.371 6.416 4.97 10.017h2.728v2.792zM68.062 3.288c-.83-.644-5.598-.49-6.732 4.006-.167.664-.142 1.253-.368 1.923-.482 1.43-2.416 3.576-3.712 1.92-.831-1.062.606-3.267-1.826-5.093-.482-.36-.94-.418-1.464-.765-1.555-1.026-1.564-2.415-.577-3.794.214-.299.43-.338.396-.72-1.033-.554-5.168 1.597-3.67 6.398.22.703.576 1.212.79 1.945.226.776.084 1.683-.165 2.364-.286.777-.652 1.1-1.263 1.474-.61.375-1.72.607-1.862-.366-.182-1.245.92-3.183-.39-4.578-1.97-2.1-4.278-.624-6.4-1.815-.578-.324-1.096-.882-1.172-1.546-.22-1.955 1.916-2.824 1.915-3.446-2.074.377-4.991 2.155-5.909 4.024-2.349 4.78 2.68 8.283.538 12.06-.22.387-.902 1.206-1.42.517-.427-.564-.385-2.043-2.523-2.543-2.088-.489-2.676-.37-3.516-2.801-.14-.403-.088-.702-.218-1.054-.304.085-.322.231-.48.555-.418.856-.644 1.548-.64 2.522.007 1.47.138 2.45.705 3.57.662 1.308 2.571 2.442 2.324 4.03-.086.552-.583.99-1.145 1.06-.942.118-1.236-1.045-2.86-1.357-2.271-.436-4.865 1.009-5.937-2.522-.362-1.193-.147-2.754-.157-3.95-.772.392-2.016 3.025-2.221 3.715-1.019 3.429.29 6.377 2.254 8.982.444.587.882 1.074 1.3 1.685 1.119 1.632.477 3.576-1.764 3.057-.78-.18-1.284-.832-1.725-1.273-1.606-1.606-2.063-1.576-4.447-1.54-.872.013-1.876.33-2.8.148-1.966-.386-3.177-2.644-3.806-4.386-.118-.326-.058-.352-.316-.443-.527.535-.66 3.656-.58 4.674.226 2.88 1.377 5.457 3.252 7.33 1.207 1.209 1.606 1.26 3.38 2.01 3.135 1.326 2.938 3.844.942 4.051-2.488.258-2.848-.544-5.731 2.311-.379.375-1.03.778-1.595 1.056-.872.432-1.217.428-2.35.37.223.923 2.01 1.884 2.827 2.126 1.569.464 2.979-.123 4.532.169 1.483.28 3.913 2.815 2.444 4.092-.435.377-1.22.352-1.851.622-2.72 1.16-2.514 3.943-4.443 5.31-1.022.725-2.392 1.033-3.993.912-1.328-.1-3.296-1.3-3.624-1.268-.155.8 1.718 3.353 2.122 3.764.949.968 2.146 1.897 3.666 2.317 1.146.318 1.288.372 2.626.372.969 0 1.924.021 2.8-.2 1.822-.46 3.113-1.116 5.189-.436 2.281.747 1.547 2.958.065 3.228-4.903.896-3.5 4.854-4.44 7.491-.412 1.156-1.241 1.805-2.25 2.285-.394.188-.862.21-1.055.519.264.434 1.816.598 2.255.597 2.453-.008 4.307-.972 5.759-2.788 2.778-3.477 7.7-1.356 3.91 1.175-2.833 1.893-3.19 4.933-2.652 8.186.534 3.22.815 5.351-1.913 7.404-.262.198-.618.4-.832.6.296.318.967.243 1.372.242.526-.002 1.11.024 1.628-.002 3.902-.197 5.68-2.442 6.82-5.87.782-2.345 2.118-4.41 5.143-4.396.976.004 2.097-.11 2.58.556.659.906-.25 1.687-.741 1.94-1.326.678-2.919 1.688-2.134 3.749.727 1.91 3.136 3.247.787 6.774-.29.435-.417.553-.745.88-.143.142-.236.249-.387.38-.31.272-.313.131-.394.495 2.556.657 5.415-.551 6.354-2.063.388-.626.77-1.594.868-2.345.14-1.083-.174-2.685 1.58-3.996 2.04-1.526 4.614-.602 3.066.925-.364.36-.663.908-.613 1.652.156 2.282 3.096 2.598 2.003 5.205-.11.261-.245.451-.192.719.109.55 2.327-1.045 2.742-1.68 1.275-1.949-1.103-3.525 1.576-4.826.355-.172 1.331-.476 1.78-.506 2.332-.158 1.487 1.448 1.318 2.897-.467 4 2.65 3.991 3.434 5.811.79 1.833-.771 3.565-1.867 4.657-.209.207-.417.363-.65.544-.261.204-.486.252-.522.666.885.289 3.588-.506 4.36-.846 2.473-1.09 4.712-2.437 6.015-4.838.772-1.423.865-2.768.617-4.625-.237-1.776.178-3.294 1.234-4.03.718-.5 1.4-.522 1.83.21.403.687-.036 1.402.233 2.31.433 1.463 1.517 2.083 2.54 2.857 1.77 1.34.376 2.877.577 4.214.947.182 3.484-2.177 3.454-5.245-.014-1.441-.872-2.035-1.254-3.186-.343-1.033.43-2.546 1.243-2.962 1.399-.717 1.638 1.29 2.133 2.14.993 1.709 4.52 1.623 5.216 3.682.316.936-.078 1.863-.482 2.659-.107.21-.24.297-.266.508-.05.418-.074-.362.023.198.097.556 2.566-1.001 3.596-2.476 1.223-1.754 1.63-5.227.297-7.306-.943-1.471-2.556-1.572-2.556-3.671 0-2.853 1.408-2.31 2.611-.483 1.402 2.128 3.058 3.371 6.016 3.368 1.525-.002 1.926-.241 2.819-.27 3.012-.097 3.522 1.262 5.054 3.61.168.258.153.336.42.402.181-.4.152-1.886.153-2.444a9.393 9.393 0 00-.285-2.439c-.368-1.493-.943-2.761-1.684-3.775-2.665-3.648-4.986-2.694-6.29-4.645-.912-1.364-1.277-3.563.323-3.482 1.188.06 2.015 2.843 6.013 1.223.684-.278 1.513-.505 2.358-.184.645.243 1.197.623 1.708 1.015.34.26 1.041 1.222 1.418 1.226.104-1.427-.812-3.054-1.469-3.736-.99-1.03-1.476-1.549-3.238-2.134-1.437-.477-2.691-.963-3.239-2.152-.292-.635-.479-1.428-.327-2.234.144-.76.786-1.203 1.512-.75 1.378.86.925 1.561 3.732 1.574 1.588.007 2.873-1.038 3.716-1.672 2.462-1.85 4.507.812 5.487 2.812.181.372.192.768.542.814.516-1.08.261-4.399-.1-5.524-.792-2.47-2.709-3.827-5.095-4.22-1.661-.274-3.421-.167-4.673-1.486-.672-.71-.512-1.653.204-2.174 1.063-.772 3.031-.39 4.73-1.42 1.354-.821 2.137-1.934 3.065-3.18.906-1.217 2.017-2.184 3.492-2.743.769-.291 1.761-.409 2.716-.296.876.103 1.946.416 2.808.426-.455-2.636-5.998-6.035-10.222-5.612-1.696.17-3.035.48-4.88.437-.87-.021-1.29-.348-1.747-.805-.365-.366-.953-1.132-.584-1.95.362-.803 1.14-.363 1.968-.686 2.453-.956 1.852-3.172 4.9-3.082 1.86.056 3.066 1.453 3.769 1.597-.058-1.228-1.198-3.445-1.828-4.097-.96-.994-1.822-1.934-3.727-2.252-3.424-.57-6.163 1.848-7.25 1.354-.899-.409-.718-1.355-.108-1.85.264-.214.62-.34.984-.46 1.068-.354 1.885-1.058 2.466-2.07 2.158-3.753-.93-8.26 3.913-11.045l1.55-.651c.105-.026.178-.018.289-.05l.309-.163c-.174-.248.013-.103-.374-.26-3.004-1.224-7.743-.562-10.238 1.297-1.51 1.125-2.81 2.567-4.137 3.898-1.504 1.51-3.34.514-2.76-1.044.373-1.007 1.418-1.514 1.958-3.455.787-2.834-1.355-5.315.969-7.632.13-.13.222-.204.347-.334.2-.208.21-.154.22-.515-1.819-.19-3.131.714-3.865 1.654-.814 1.044-1.204 2.408-1.907 3.562-.739 1.211-1.727 1.915-3.667 1.63-.78-.115-1.424-.532-1.16-1.494.132-.483.939-1.153 1.303-1.44 2.33-1.838 1.797-5.74.01-7.975-.412-.516-.859-.934-1.25-1.485-2.534-3.566.942-4.6.9-5.503-1.286-.281-3.41.265-4.4.746C70.2 3.21 73.08 8.65 70.82 12.153c-.608.94-1.99 2.204-3.273 1.845-1.485-.415-.43-2.64-1.08-4.123-.895-2.046-2.11-3.252.151-5.414.206-.196.47-.395.717-.56.33-.223.692-.243.727-.613zm-11.775 14.98c18.762 0 33.97 15.193 33.97 33.935 0 18.742-15.208 33.935-33.97 33.935-18.761 0-33.97-15.193-33.97-33.935 0-18.742 15.209-33.935 33.97-33.935zm22.234 12.287l-7.068.008-2.294 5.385h-25.77l-2.299-5.395h-7.035c5.64-5.778 13.516-9.367 22.232-9.367 8.718 0 16.595 3.59 22.234 9.37zm-44.637.174l5.045 11.95h34.676l5.086-11.95c5.354 5.573 8.646 13.14 8.646 21.474 0 17.096-13.845 30.96-30.944 31.017l7.271-17.034 7.355-17.225H41.602l7.354 17.225 7.272 17.034c-17.12-.032-30.99-13.906-30.99-31.017 0-8.335 3.29-15.902 8.646-21.474zm22.43 48.837l12.392-29.13-24.693.036 12.302 29.094zm-.027-62.836c19.613 0 35.511 15.882 35.511 35.473 0 19.592-15.898 35.474-35.511 35.474-19.612 0-35.51-15.882-35.51-35.474 0-19.591 15.898-35.473 35.51-35.473z" fill="#272727"/><path d="M134.873 81.881v-.34c0-2.247-1.266-2.89-3.597-2.89-2.578 0-4.137.432-4.137 3.336v2.27c0 3.207 1.746 3.372 4.137 3.372 2.742 0 3.597-.668 3.597-3.138v-.257h-2.414v.257c0 1.03-.468 1.1-1.441 1.1-1.406 0-1.465-.55-1.465-1.86v-1.37c0-1.253.129-1.674 1.465-1.674.797 0 1.441.152 1.441.854v.34h2.414zm5.472-1.112h2.367v-2.037h-7.077v2.037h2.367v6.742h2.343V80.77zm5.708 4.307h2.074c2.449 0 3-.772 3-3.242 0-2.294-.821-3.102-3-3.102h-4.418v8.78h2.344v-2.436zm0-4.424h1.605c.914 0 1.055.304 1.055 1.206 0 1.135-.164 1.299-1.055 1.299h-1.605v-2.505zm10.194 6.977c2.379 0 4.067-.562 4.067-3.267v-2.481c0-2.704-1.688-3.23-4.067-3.23-2.378 0-4.066.526-4.066 3.23v2.481c0 2.705 1.688 3.267 4.066 3.267zm0-2.037c-1.218 0-1.652-.176-1.652-1.487v-1.978c0-1.311.434-1.44 1.652-1.44 1.219 0 1.653.14 1.653 1.44v1.978c0 1.311-.434 1.487-1.653 1.487zm7.582-6.86h-2.226v8.78h3.187l2.637-5.783h.082v5.782h2.226v-8.78h-3.082l-2.742 5.784h-.082v-5.783zm11.613 2.037h2.367v-2.037h-7.078v2.037h2.367v6.742h2.344V80.77zm5.707-.117h3.996v-1.92h-6.34v8.78h6.422v-1.92h-4.078v-1.71h3.75v-1.627h-3.75v-1.603zm6.55-1.92v5.76c0 .866-.222 1.193-.867 1.193-.316 0-.504-.011-.715-.082V87.5c.363.07.692.105 1.195.105 1.782 0 2.614-1.229 2.614-3.149V80.77h2.542v6.742h2.344v-8.78h-7.113zm10.98 0h-2.344v8.78h4.523c1.77 0 2.708-.727 2.708-2.693 0-1.967-.914-2.692-2.708-2.692h-2.179v-3.395zm0 5.221h1.629c.668 0 .914.163.914.89 0 .678-.246.842-.914.842h-1.629v-1.732zm8.519-5.221h-2.344v8.78h2.344V84.07h3.058v3.442h2.344v-8.78h-2.344v3.301h-3.058v-3.301zm12.245 7.27l.458 1.51h2.39l-2.672-8.78h-3.562l-2.637 8.78h2.438l.433-1.51h3.152zm-.48-1.698h-2.168l1.066-3.816h.024l1.078 3.816zm8.906 3.207h2.343v-8.78h-4.5c-2.085 0-2.835.89-2.835 2.775 0 1.417.433 2.154 1.57 2.634l-1.91 3.371h2.683l1.547-3.09h1.102v3.09zm0-5.01h-1.582c-.668 0-1.067-.234-1.067-.913 0-.75.223-.936.891-.936h1.758v1.85zm10.429-3.77h-2.344v8.78h2.344V84.07h.703l2.449 3.442h2.906l-3.351-4.472 3.093-4.308h-2.836l-2.261 3.301h-.703v-3.301zm10.652 8.898c2.378 0 4.066-.562 4.066-3.267v-2.481c0-2.704-1.688-3.23-4.066-3.23-2.379 0-4.066.526-4.066 3.23v2.481c0 2.705 1.687 3.267 4.066 3.267zm0-2.037c-1.219 0-1.653-.176-1.653-1.487v-1.978c0-1.311.434-1.44 1.653-1.44s1.652.14 1.652 1.44v1.978c0 1.311-.433 1.487-1.652 1.487zm5.355-6.86v8.78h2.344l-.235-6.732.105-.023 2.215 6.754h2.027l2.203-6.754.106.023-.234 6.731h2.343v-8.78h-3.808l-1.593 5.515h-.083l-1.675-5.514h-3.715zm12.398 0v8.78h2.344v-6.743h3.058v6.742h2.344v-8.78h-7.746zm14.589 7.27l.457 1.51h2.39l-2.671-8.78h-3.563l-2.636 8.78h2.437l.434-1.51h3.152zm-.481-1.698h-2.167l1.066-3.816h.023l1.078 3.816zm6.493-5.572h-2.344v8.78h2.344V84.07h3.058v3.442h2.344v-8.78h-2.344v3.301h-3.058v-3.301zm9.151 0h-2.226v8.78h3.187l2.637-5.783h.082v5.782h2.226v-8.78h-3.082l-2.742 5.784h-.082v-5.783zm12.187 8.78h2.344v-8.78h-4.5c-2.086 0-2.836.89-2.836 2.774 0 1.417.434 2.154 1.57 2.634l-1.91 3.371h2.684l1.547-3.09h1.101v3.09zm0-5.01h-1.582c-.668 0-1.066-.235-1.066-.914 0-.75.223-.936.891-.936h1.757v1.85z" fill="#272727"/></svg></svg>